<svg id="Groupe_1512" data-name="Groupe 1512" xmlns="http://www.w3.org/2000/svg" width="150.333" height="52.499" viewBox="0 0 150.333 52.499">
  <rect id="Rectangle_734" data-name="Rectangle 734" width="2.825" height="14.506" transform="translate(0.601 28.337)" fill="#023b4a"/>
  <g id="Groupe_1370" data-name="Groupe 1370">
    <g id="Groupe_1258" data-name="Groupe 1258">
      <g id="Groupe_1368" data-name="Groupe 1368">
        <path id="Tracé_737" data-name="Tracé 737" d="M281.546,132.165l-.633-1.1H279.1v10.247h2.657v-6.241c0-1.349,1.392-1.771,3.163-1.518V130.9a5.061,5.061,0,0,0-3.373,1.265" transform="translate(-194.216 -98.473)" fill="#023b4a"/>
        <path id="Tracé_738" data-name="Tracé 738" d="M221.26,120.7a1.548,1.548,0,0,0-1.56,1.518,1.522,1.522,0,0,0,1.56,1.518,1.548,1.548,0,0,0,1.56-1.518,1.607,1.607,0,0,0-1.56-1.518" transform="translate(-159.864 -92.574)" fill="#023b4a"/>
        <rect id="Rectangle_735" data-name="Rectangle 735" width="2.657" height="10.247" transform="translate(60.047 32.596)" fill="#023b4a"/>
        <path id="Tracé_739" data-name="Tracé 739" d="M244.06,120.7a1.548,1.548,0,0,0-1.56,1.518,1.522,1.522,0,0,0,1.56,1.518,1.548,1.548,0,0,0,1.56-1.518,1.607,1.607,0,0,0-1.56-1.518" transform="translate(-173.05 -92.574)" fill="#023b4a"/>
        <rect id="Rectangle_736" data-name="Rectangle 736" width="2.657" height="10.247" transform="translate(69.661 32.596)" fill="#023b4a"/>
        <rect id="Rectangle_737" data-name="Rectangle 737" width="2.657" height="14.506" transform="translate(64.896 28.337)" fill="#023b4a"/>
        <path id="Tracé_740" data-name="Tracé 740" d="M198.655,126.142a4.3,4.3,0,0,0-2.7.886V122.6a5.379,5.379,0,0,1-2.108.38H193.3v13.536h2.066l.38-.97a4.187,4.187,0,0,0,2.952,1.1c2.53,0,4.47-1.771,4.47-5.271.042-3.584-1.982-5.229-4.512-5.229m-.59,8.138a2.458,2.458,0,0,1-2.108-1.139V131.16c0-1.855.675-2.741,2.151-2.741s2.361,1.054,2.361,2.952c0,1.645-.717,2.91-2.4,2.91" transform="translate(-144.596 -93.673)" fill="#023b4a"/>
        <path id="Tracé_741" data-name="Tracé 741" d="M97.813,135.3c0-1.139.506-1.982,1.771-1.982,1.223,0,1.687.8,1.687,2.066v5.988h2.657v-6.747A3.4,3.4,0,0,0,100.174,131a4.245,4.245,0,0,0-3.036,1.434A3.512,3.512,0,0,0,94.06,131a3.662,3.662,0,0,0-2.657,1.181l-.59-1.054H89v10.247h2.657V135.3c0-1.139.464-1.982,1.729-1.982,1.223,0,1.771.8,1.771,2.066v5.988h2.657V135.3" transform="translate(-84.277 -98.531)" fill="#023b4a"/>
        <path id="Tracé_742" data-name="Tracé 742" d="M136.913,135.3c0-1.139.506-1.982,1.771-1.982,1.223,0,1.687.8,1.687,2.066v5.988h2.657v-6.747A3.4,3.4,0,0,0,139.274,131a4.245,4.245,0,0,0-3.036,1.434A3.512,3.512,0,0,0,133.16,131a3.662,3.662,0,0,0-2.657,1.181l-.59-1.054H128.1v10.247h2.657V135.3c0-1.139.464-1.982,1.729-1.982,1.223,0,1.771.8,1.771,2.066v5.988h2.657Z" transform="translate(-106.89 -98.531)" fill="#023b4a"/>
        <path id="Tracé_743" data-name="Tracé 743" d="M261.7,140.641l-.633-2.066a7.668,7.668,0,0,1-2.952.59c-1.645,0-2.614-.59-2.91-1.9h6.831v-1.1c0-2.994-1.813-5.271-4.723-5.271-2.825,0-5.018,1.94-5.018,5.271s2.277,5.271,5.777,5.271a8.031,8.031,0,0,0,3.626-.8m-4.385-7.506c1.139,0,1.9.717,1.982,2.277h-4.132c.211-1.56,1.012-2.277,2.151-2.277" transform="translate(-178.717 -98.473)" fill="#023b4a"/>
        <path id="Tracé_744" data-name="Tracé 744" d="M171.344,131a5.273,5.273,0,1,0,5.144,5.271A4.969,4.969,0,0,0,171.344,131m0,8.307c-1.265,0-2.446-.97-2.446-3.036s1.181-3.036,2.446-3.036,2.446.97,2.446,3.036-1.181,3.036-2.446,3.036" transform="translate(-128.924 -98.531)" fill="#023b4a"/>
        <path id="Tracé_745" data-name="Tracé 745" d="M111.644,87.5a5.273,5.273,0,1,0,5.144,5.271,4.969,4.969,0,0,0-5.144-5.271m0,8.307c-1.265,0-2.446-.97-2.446-3.036s1.181-3.036,2.446-3.036,2.446.97,2.446,3.036-1.181,3.036-2.446,3.036" transform="translate(-94.398 -73.374)" fill="#023b4a"/>
        <path id="Tracé_746" data-name="Tracé 746" d="M164.869,97.852l3.163-9.952h-2.783l-1.982,6.958L160.61,87.9H157.7l4.217,10.415c-.506,1.687-2.53,1.476-4.132.759v2.361c2.952.928,5.861.548,7.084-3.584" transform="translate(-124.008 -73.605)" fill="#023b4a"/>
        <path id="Tracé_747" data-name="Tracé 747" d="M186.6,98a3.732,3.732,0,0,0,2.741-1.1c-.127,2.024-1.054,2.572-2.614,2.572a7.116,7.116,0,0,1-3.078-.675v2.361a11.97,11.97,0,0,0,3.458.548A4.6,4.6,0,0,0,192,96.9V87.669h-2.066l-.253.886a3.907,3.907,0,0,0-2.657-1.054c-4.132,0-4.723,3.8-4.723,5.187C182.257,96.271,184.07,98,186.6,98m.59-8.265c1.476,0,2.151.886,2.151,2.741V94.5a2.18,2.18,0,0,1-2.108,1.139c-1.687,0-2.235-1.265-2.235-2.952,0-2.024.886-2.952,2.193-2.952" transform="translate(-138.234 -73.374)" fill="#023b4a"/>
        <path id="Tracé_748" data-name="Tracé 748" d="M261.236,90.325c.042-.337.253-.548,1.181-.548a11.572,11.572,0,0,1,3.458.633l.675-2.277a13.215,13.215,0,0,0-3.711-.633c-2.783,0-4.343,1.012-4.343,3.247,0,1.476.843,2.361,3.078,2.994,1.813.506,2.488.675,2.488,1.265,0,.506-.422.759-1.434.759a9.559,9.559,0,0,1-3.669-.8l-.759,2.193a9.968,9.968,0,0,0,4.09.843c2.867,0,4.6-1.1,4.6-3.331,0-1.771-1.349-2.572-2.741-2.952-2.235-.633-2.952-.8-2.91-1.392" transform="translate(-182.129 -73.374)" fill="#023b4a"/>
        <path id="Tracé_749" data-name="Tracé 749" d="M242.6,97.241l-.633-2.066a7.668,7.668,0,0,1-2.952.59c-1.645,0-2.614-.59-2.91-1.9h6.831v-1.1c0-2.994-1.813-5.271-4.723-5.271-2.825,0-5.018,1.94-5.018,5.271s2.277,5.271,5.777,5.271a8.031,8.031,0,0,0,3.626-.8m-4.385-7.548c1.139,0,1.9.717,1.982,2.277h-4.132c.211-1.56,1.012-2.277,2.151-2.277" transform="translate(-167.671 -73.374)" fill="#023b4a"/>
        <path id="Tracé_750" data-name="Tracé 750" d="M88.89,88.258A3.559,3.559,0,0,0,86.74,84.8a3.614,3.614,0,0,0,1.729-3.331c0-1.982-1.645-3.669-4.6-3.669H77.8V92.306h5.9c3.163,0,5.187-1.434,5.187-4.048m-5.44-8.012c1.307,0,2.151.59,2.151,1.729S84.758,83.7,83.45,83.7H80.667V80.246Zm-2.825,9.7V86.065H83.2c1.687,0,2.783.675,2.783,1.94s-.928,1.94-2.783,1.94Z" transform="translate(-77.8 -67.764)" fill="#023b4a"/>
        <path id="Tracé_751" data-name="Tracé 751" d="M136.357,93.93V87.9H133.7v6.241c0,2.952,1.518,4.132,3.837,4.132a4.339,4.339,0,0,0,2.91-1.139l.59,1.012h1.813V87.9h-2.657v6.157a1.747,1.747,0,0,1-1.94,1.982c-1.392-.042-1.9-.843-1.9-2.108" transform="translate(-110.128 -73.605)" fill="#023b4a"/>
        <path id="Tracé_752" data-name="Tracé 752" d="M211.657,93.93V87.9H209v6.241c0,2.952,1.518,4.132,3.837,4.132a4.339,4.339,0,0,0,2.91-1.139l.59,1.012h1.813V87.9h-2.657v6.157a1.747,1.747,0,0,1-1.94,1.982c-1.392-.042-1.9-.843-1.9-2.108" transform="translate(-153.676 -73.605)" fill="#023b4a"/>
        <rect id="Rectangle_738" data-name="Rectangle 738" width="15.813" height="32.807" transform="translate(96.522 10.036)" fill="#86bc24"/>
        <path id="Tracé_753" data-name="Tracé 753" d="M372.595,76.939a12.38,12.38,0,0,0,6.072-10.415C378.54,59.187,372.046,54,359.986,54A83.06,83.06,0,0,0,344.3,55.56v8.476h16.825V96.842H344.3v8.349A104.5,104.5,0,0,0,361,106.5c13.7,0,20.957-6.916,21.253-15.729.169-6.663-3.964-11.512-9.656-13.831" transform="translate(-231.923 -54)" fill="#023b4a"/>
      </g>
    </g>
  </g>
</svg>
