<svg width="190" height="85" viewBox="0 0 190 85" fill="none" xmlns="http://www.w3.org/2000/svg">
<path fill-rule="evenodd" clip-rule="evenodd" d="M80.4781 5.76948H115.144C116.735 5.76948 118.026 4.4781 118.026 2.8872C118.026 1.29138 116.735 0 115.144 0H80.4781C78.8872 0 77.5958 1.29138 77.5958 2.8872C77.5958 4.4781 78.8872 5.76948 80.4781 5.76948ZM124.67 16.5768H90.0039C88.413 16.5768 87.1216 15.2854 87.1216 13.6945C87.1216 12.1036 88.413 10.8073 90.0039 10.8073H124.67C126.261 10.8073 127.552 12.0987 127.552 13.6945C127.552 15.2854 126.261 16.5768 124.67 16.5768ZM74.8658 27.3891H109.532C111.128 27.3891 112.419 26.0977 112.414 24.5068C112.414 22.911 111.123 21.6196 109.532 21.6196H74.8658C73.2749 21.6196 71.9835 22.9159 71.9835 24.5068C71.9835 26.0977 73.2749 27.3891 74.8658 27.3891ZM148.421 49.0676C147.925 48.8368 147.404 48.6404 146.874 48.4882C146.343 48.3311 145.808 48.2132 145.278 48.1248C144.748 48.0414 144.247 47.9972 143.78 47.9972C142.577 47.9972 141.59 48.1641 140.82 48.498C140.044 48.8319 139.661 49.3278 139.661 49.9809C139.661 50.5308 139.96 50.958 140.559 51.2674C141.158 51.5767 141.914 51.8468 142.823 52.0775C143.731 52.3083 144.713 52.5391 145.769 52.76C146.825 52.981 147.807 53.2953 148.715 53.7028C149.624 54.1054 150.38 54.6357 150.979 55.2888C151.578 55.9419 151.877 56.8011 151.877 57.8667C151.877 58.7603 151.656 59.5558 151.219 60.2481C150.782 60.9453 150.183 61.5346 149.417 62.0256C148.651 62.5166 147.763 62.8898 146.751 63.1451C145.735 63.4004 144.664 63.533 143.53 63.533C142.862 63.533 142.135 63.479 141.355 63.3661C140.574 63.2531 139.793 63.0862 139.008 62.8652C138.227 62.6394 137.466 62.3693 136.729 62.055C135.993 61.7359 135.32 61.3725 134.721 60.9601L136.68 58.0483C137.127 58.392 137.633 58.7063 138.202 58.9862C138.767 59.271 139.366 59.5116 139.995 59.708C140.618 59.9044 141.266 60.0566 141.924 60.1597C142.587 60.2628 143.235 60.3119 143.869 60.3119C144.33 60.3119 144.807 60.2776 145.288 60.2088C145.769 60.1401 146.201 60.0222 146.589 59.8602C146.977 59.6982 147.291 59.487 147.542 59.2268C147.792 58.9715 147.915 58.6523 147.915 58.2742C147.915 57.6752 147.615 57.2087 147.016 56.8846C146.417 56.5605 145.656 56.2856 144.748 56.0744C143.834 55.8584 142.857 55.6472 141.811 55.4312C140.761 55.2151 139.783 54.9254 138.875 54.5523C137.967 54.184 137.206 53.6832 136.607 53.0547C136.003 52.4311 135.703 51.5914 135.703 50.5406C135.703 49.701 135.914 48.9252 136.337 48.223C136.759 47.5209 137.338 46.9071 138.075 46.3915C138.811 45.876 139.671 45.4782 140.657 45.1934C141.644 44.9086 142.715 44.7663 143.869 44.7663C144.487 44.7663 145.15 44.8203 145.867 44.9234C146.579 45.0265 147.291 45.1738 147.993 45.3604C148.695 45.5519 149.368 45.7778 150.002 46.0429C150.635 46.3081 151.205 46.6076 151.701 46.9316L149.741 49.8434C149.358 49.5635 148.921 49.3033 148.421 49.0676ZM65.4186 47.3834L63.4594 50.2951C62.6345 49.539 61.6966 49.0037 60.636 48.6846C59.5803 48.3654 58.559 48.2083 57.5819 48.2083C56.5704 48.2083 55.6374 48.3507 54.7831 48.6355C53.9336 48.9203 53.1971 49.318 52.5784 49.8336C51.9597 50.3491 51.4785 50.9776 51.1348 51.7142C50.7911 52.4556 50.6192 53.2707 50.6192 54.1595C50.6192 55.0678 50.7911 55.8928 51.1348 56.6195C51.4785 57.3511 51.9597 57.9747 52.5784 58.4853C53.1971 59.0009 53.9287 59.3986 54.7831 59.6834C55.6374 59.9682 56.5655 60.1057 57.5819 60.1057C58.7652 60.1057 59.8357 59.924 60.7882 59.5656C61.7408 59.2071 62.6983 58.6621 63.6607 57.9403L65.5659 60.7735C64.5347 61.6671 63.3268 62.3497 61.947 62.821C60.5624 63.2924 59.109 63.533 57.577 63.533C55.8731 63.533 54.351 63.2875 53.0007 62.7965C51.6504 62.3055 50.5063 61.6377 49.5635 60.7882C48.6208 59.9388 47.899 58.942 47.3981 57.7979C46.8973 56.6538 46.6469 55.441 46.6469 54.1496C46.6469 52.8632 46.8973 51.6454 47.3981 50.5063C47.899 49.3622 48.6208 48.3654 49.5635 47.516C50.5063 46.6665 51.6504 45.9938 53.0007 45.5077C54.351 45.0167 55.8731 44.7712 57.577 44.7712C59.2415 44.7712 60.7293 45.0019 62.0354 45.4684C63.3465 45.9398 64.4709 46.5732 65.4186 47.3834ZM43.2588 57.8078C43.7548 56.6637 44.0052 55.446 44.0052 54.1595C44.0052 52.8681 43.7548 51.6553 43.2588 50.5161C42.7629 49.3721 42.0411 48.3753 41.1082 47.5258C40.1703 46.6764 39.0311 46.0086 37.6808 45.5176C36.3305 45.0266 34.8035 44.781 33.1045 44.781C31.4007 44.781 29.8785 45.0266 28.5282 45.5176C27.1779 46.0037 26.0339 46.6764 25.1009 47.5258C24.1631 48.3753 23.4462 49.3721 22.9502 50.5161C22.4543 51.6553 22.2039 52.8681 22.2039 54.1595C22.2039 55.4509 22.4494 56.6637 22.9502 57.8078C23.4462 58.9519 24.1631 59.9486 25.1009 60.7981C26.0388 61.6476 27.1779 62.3154 28.5282 62.8064C29.8785 63.2974 31.4007 63.5429 33.1045 63.5429C34.8084 63.5429 36.3305 63.2974 37.6808 62.8064C39.0311 62.3203 40.1703 61.6476 41.1082 60.7981C42.0411 59.9486 42.758 58.9519 43.2588 57.8078ZM30.3303 48.6355C31.1797 48.3508 32.1078 48.2084 33.1193 48.2084C34.1259 48.2084 35.0588 48.3458 35.9132 48.6355C36.7626 48.9203 37.4893 49.3181 38.0982 49.8336C38.7022 50.3492 39.1785 50.9777 39.5222 51.7142C39.8659 52.4508 40.0377 53.2659 40.0377 54.1595C40.0377 55.0679 39.8659 55.8879 39.5222 56.6195C39.1834 57.3511 38.7071 57.9747 38.0982 58.4903C37.4893 59.0059 36.7626 59.4036 35.9132 59.6884C35.0637 59.9732 34.1308 60.1156 33.1193 60.1156C32.1078 60.1156 31.1797 59.9732 30.3303 59.6884C29.4808 59.4036 28.7492 59.0059 28.1305 58.4903C27.5167 57.9698 27.0355 57.3511 26.6918 56.6195C26.3481 55.8879 26.1762 55.0728 26.1762 54.1595C26.1762 53.2708 26.3481 52.4508 26.6918 51.7142C27.0306 50.9777 27.5118 50.3492 28.1305 49.8336C28.7492 49.3181 29.4808 48.9203 30.3303 48.6355ZM18.8944 57.4837C19.2922 56.4182 19.4886 55.3134 19.4886 54.1595C19.4886 53.0105 19.2922 51.9008 18.8944 50.8402C18.5016 49.7747 17.932 48.8761 17.1955 48.1347C16.6063 47.5504 15.9876 47.0643 15.3247 46.6665C14.6618 46.2688 13.94 45.9497 13.1593 45.6992C12.3786 45.4488 11.5291 45.272 10.6208 45.1689C9.70746 45.0658 8.71069 45.0118 7.63045 45.0118C6.42745 45.0118 5.19008 45.0265 3.91834 45.0511C2.6466 45.0756 1.34048 45.1051 0 45.1395V63.1795L0.362221 63.1888L0.363394 63.1889C1.5768 63.2201 2.76178 63.2505 3.91834 63.2728C5.19008 63.2974 6.42745 63.3121 7.63045 63.3121C8.7156 63.3121 9.71237 63.2581 10.6208 63.155C11.5291 63.0519 12.3737 62.88 13.1593 62.6394C13.94 62.3988 14.6618 62.0796 15.3247 61.6868C15.9876 61.2891 16.6112 60.7932 17.1955 60.1892C17.932 59.4527 18.5016 58.5492 18.8944 57.4837ZM13.999 50.1921C15.0154 51.2085 15.5211 52.5244 15.5211 54.1448C15.5211 55.7651 15.0154 57.0811 13.999 58.0877C13.5865 58.505 13.1446 58.8193 12.6732 59.0451C12.2018 59.2661 11.6961 59.4429 11.1658 59.5607C10.6355 59.6835 10.0659 59.7571 9.46686 59.7817C8.8629 59.8062 8.23931 59.821 7.58625 59.821C6.94793 59.821 6.32924 59.8161 5.7302 59.8062L5.62854 59.8046H5.62844H5.62835H5.62827H5.6282H5.62813H5.62806H5.628H5.62794H5.62788H5.62783C5.05425 59.7953 4.45031 59.7855 3.82013 59.7669V48.5079C4.49283 48.4931 5.12625 48.4833 5.7302 48.4833H7.58625C8.23931 48.4833 8.8629 48.498 9.46686 48.5226C10.0659 48.5471 10.6355 48.6159 11.1658 48.7288C11.6961 48.8418 12.2018 49.0087 12.6732 49.2346C13.1446 49.4604 13.5865 49.7796 13.999 50.1921ZM86.7533 63.1795H89.0218L79.5648 44.9627H75.8527L66.3957 63.1795H70.4908L72.1406 59.9093H83.2229L84.308 62.0207C84.4455 62.2957 84.583 62.5117 84.7205 62.6639C84.858 62.821 85.0151 62.934 85.1968 63.0125C85.3785 63.0911 85.5896 63.1402 85.84 63.1549C86.0855 63.1697 86.39 63.1795 86.7533 63.1795ZM77.6842 48.9252L81.4994 56.5016H73.869L77.6842 48.9252ZM95.4199 57.793V63.1795H91.6046V45.1395C92.567 45.1051 93.6227 45.0756 94.7766 45.0511C95.9305 45.0265 97.05 45.0118 98.1303 45.0118C101.469 45.0118 104.008 45.4979 105.741 46.4701C107.479 47.4424 108.348 49.0578 108.348 51.3263C108.348 52.5981 108.098 53.6488 107.602 54.4836C107.101 55.3183 106.409 55.9812 105.525 56.482C104.636 56.978 103.586 57.3266 102.373 57.523C101.16 57.7194 99.8292 57.8225 98.3856 57.8225C97.9928 57.8225 97.5116 57.8176 96.9518 57.8078C96.397 57.798 95.8863 57.793 95.4199 57.793ZM95.4199 54.3117C95.8814 54.3117 96.3528 54.3166 96.8389 54.3265C97.3201 54.3363 97.7571 54.3412 98.1548 54.3412C98.7195 54.3412 99.2744 54.3363 99.8145 54.3265C100.355 54.3166 100.86 54.2773 101.337 54.2086C101.808 54.1399 102.24 54.0318 102.638 53.8845C103.031 53.7372 103.369 53.5261 103.644 53.2511C103.885 52.9909 104.072 52.7061 104.199 52.3967C104.327 52.0874 104.391 51.7142 104.391 51.2821C104.391 50.9875 104.337 50.6929 104.224 50.3885C104.111 50.084 103.959 49.8434 103.772 49.6519C103.517 49.3917 103.212 49.1855 102.869 49.0283C102.525 48.8712 102.127 48.7583 101.671 48.6797C101.214 48.6012 100.698 48.5521 100.124 48.5226C99.5493 48.498 98.8914 48.4833 98.1548 48.4833H96.8389C96.3577 48.4833 95.8863 48.4931 95.4199 48.5079V54.3117ZM131.75 57.8078C132.246 56.6637 132.497 55.446 132.497 54.1595C132.497 52.8681 132.251 51.6553 131.75 50.5161C131.25 49.3721 130.533 48.3753 129.6 47.5258C128.662 46.6764 127.518 46.0086 126.172 45.5176C124.822 45.0266 123.295 44.781 121.596 44.781C119.892 44.781 118.37 45.0266 117.02 45.5176C115.67 46.0037 114.525 46.6764 113.593 47.5258C112.655 48.3753 111.938 49.3721 111.442 50.5161C110.946 51.6553 110.695 52.8681 110.695 54.1595C110.695 55.4509 110.941 56.6637 111.442 57.8078C111.938 58.9519 112.655 59.9486 113.593 60.7981C114.53 61.6476 115.67 62.3154 117.02 62.8064C118.37 63.2974 119.892 63.5429 121.596 63.5429C123.3 63.5429 124.822 63.2974 126.172 62.8064C127.523 62.3203 128.662 61.6476 129.6 60.7981C130.533 59.9486 131.25 58.9519 131.75 57.8078ZM118.822 48.6355C119.671 48.3508 120.599 48.2084 121.611 48.2084C122.622 48.2084 123.555 48.3458 124.4 48.6355C125.249 48.9203 125.976 49.3181 126.585 49.8336C127.189 50.3492 127.665 50.9777 128.009 51.7142C128.353 52.4508 128.524 53.2659 128.524 54.1595C128.524 55.0679 128.353 55.8879 128.009 56.6195C127.67 57.3511 127.194 57.9747 126.585 58.4903C125.976 59.0059 125.249 59.4036 124.4 59.6884C123.555 59.9732 122.622 60.1156 121.611 60.1156C120.599 60.1156 119.671 59.9732 118.822 59.6884C117.972 59.4036 117.241 59.0059 116.622 58.4903C116.008 57.9698 115.527 57.3511 115.183 56.6195C114.84 55.8879 114.668 55.0728 114.668 54.1595C114.668 53.2708 114.84 52.4508 115.183 51.7142C115.522 50.9777 116.003 50.3492 116.622 49.8336C117.241 49.3181 117.972 48.9203 118.822 48.6355ZM164.462 48.6159H171.346V45.1394H153.768V48.6159H160.652V63.1795H164.462V48.6159ZM189.666 45.1394V48.6208H177.813V52.2298H188.689V55.7111H177.813V59.7031H190V63.1844H175.314C174.882 63.1844 174.557 63.0666 174.336 62.826C174.111 62.5854 174.003 62.276 174.003 61.8979V45.1394H189.666Z" fill="#0000FF"/>
<path d="M0 71.6422H2.08391V82.2314H0V71.6422Z" fill="#706F6F"/>
<path d="M4.81945 71.528C5.19349 71.528 5.50073 71.6565 5.74118 71.9134C5.98163 72.1607 6.10185 72.489 6.10185 72.8981C6.10185 73.0883 6.07959 73.2786 6.03506 73.4689C5.99053 73.6592 5.89703 73.9446 5.75454 74.3252L4.97975 76.3802H3.65727L4.23168 74.1254C4.00904 74.0207 3.83538 73.8637 3.71071 73.6544C3.58603 73.4451 3.52369 73.193 3.52369 72.8981C3.52369 72.489 3.64391 72.1607 3.88436 71.9134C4.13372 71.6565 4.44542 71.528 4.81945 71.528Z" fill="#706F6F"/>
<path d="M10.2824 74.4393C11.3956 74.4393 12.2505 74.7248 12.8472 75.2956C13.4439 75.8569 13.7422 76.7085 13.7422 77.8502V82.2314H11.7919V81.2752C11.4001 81.9888 10.6698 82.3456 9.60112 82.3456C9.04898 82.3456 8.56808 82.2457 8.15842 82.0459C7.75767 81.8461 7.45042 81.5702 7.23669 81.2181C7.02296 80.8661 6.91609 80.4665 6.91609 80.0194C6.91609 79.3058 7.16545 78.7445 7.66416 78.3354C8.17178 77.9263 8.95102 77.7217 10.0019 77.7217H11.6583C11.6583 77.2365 11.5203 76.8654 11.2442 76.6086C10.9681 76.3422 10.554 76.209 10.0019 76.209C9.61893 76.209 9.24045 76.2756 8.86641 76.4088C8.50128 76.5325 8.18959 76.7037 7.93133 76.9225L7.18326 75.367C7.5751 75.072 8.04265 74.8437 8.58589 74.682C9.13803 74.5202 9.70354 74.4393 10.2824 74.4393ZM10.1221 80.8471C10.4783 80.8471 10.7945 80.7615 11.0705 80.5902C11.3466 80.4094 11.5425 80.1478 11.6583 79.8053V79.0204H10.229C9.37403 79.0204 8.94656 79.3201 8.94656 79.9195C8.94656 80.2049 9.04898 80.4332 9.25381 80.6045C9.46754 80.7662 9.75697 80.8471 10.1221 80.8471Z" fill="#706F6F"/>
<path d="M22.6312 74.5535L19.5988 82.2314H17.4481L14.4291 74.5535H16.5798L18.5702 79.7768L20.6274 74.5535H22.6312Z" fill="#706F6F"/>
<path d="M30.3257 78.421C30.3257 78.4495 30.3123 78.6493 30.2856 79.0204H24.8488C24.9467 79.4961 25.1783 79.8719 25.5434 80.1478C25.9085 80.4237 26.3627 80.5617 26.906 80.5617C27.28 80.5617 27.6095 80.5046 27.8945 80.3904C28.1884 80.2667 28.46 80.0765 28.7093 79.8196L29.8181 81.104C29.1413 81.9317 28.1527 82.3456 26.8525 82.3456C26.0421 82.3456 25.3252 82.1791 24.7018 81.8461C24.0784 81.5036 23.5975 81.0326 23.2591 80.4332C22.9207 79.8338 22.7515 79.1536 22.7515 78.3925C22.7515 77.6408 22.9163 76.9653 23.2458 76.366C23.5842 75.7571 24.0428 75.2861 24.6217 74.9531C25.2094 74.6106 25.864 74.4393 26.5854 74.4393C27.2889 74.4393 27.9256 74.6011 28.4956 74.9246C29.0656 75.248 29.5108 75.7142 29.8314 76.3231C30.1609 76.9225 30.3257 77.6218 30.3257 78.421ZM26.5987 76.1233C26.1267 76.1233 25.7304 76.2661 25.4098 76.5515C25.0892 76.8369 24.8933 77.227 24.822 77.7217H28.362C28.2908 77.2365 28.0949 76.8512 27.7743 76.5657C27.4536 76.2708 27.0618 76.1233 26.5987 76.1233Z" fill="#706F6F"/>
<path d="M36.0813 74.4393C36.9718 74.4393 37.6887 74.7248 38.232 75.2956C38.7841 75.8665 39.0602 76.7132 39.0602 77.8359V82.2314H36.9763V78.1784C36.9763 77.5695 36.8516 77.1176 36.6023 76.8226C36.3529 76.5182 35.9922 76.366 35.5202 76.366C34.9948 76.366 34.5762 76.542 34.2645 76.894C33.9528 77.2365 33.797 77.7503 33.797 78.4353V82.2314H31.7131V74.5535H33.7035V75.4526C33.9796 75.1291 34.3224 74.8818 34.7321 74.7105C35.1417 74.5297 35.5915 74.4393 36.0813 74.4393Z" fill="#706F6F"/>
<path d="M40.9492 74.5535H43.0331V82.2314H40.9492V74.5535ZM41.9911 73.4832C41.6082 73.4832 41.2965 73.3643 41.056 73.1264C40.8156 72.8885 40.6953 72.5936 40.6953 72.2416C40.6953 71.8896 40.8156 71.5946 41.056 71.3568C41.2965 71.1189 41.6082 71 41.9911 71C42.3741 71 42.6857 71.1142 42.9262 71.3425C43.1666 71.5708 43.2869 71.8563 43.2869 72.1988C43.2869 72.5698 43.1666 72.879 42.9262 73.1264C42.6857 73.3643 42.3741 73.4832 41.9911 73.4832Z" fill="#706F6F"/>
<path d="M46.9575 75.5668C47.2069 75.1957 47.5408 74.9151 47.9594 74.7248C48.3868 74.5345 48.8767 74.4393 49.4288 74.4393V76.4944C49.1973 76.4754 49.0414 76.4659 48.9613 76.4659C48.3646 76.4659 47.897 76.6466 47.5586 77.0082C47.2202 77.3602 47.051 77.893 47.051 78.6065V82.2314H44.9671V74.5535H46.9575V75.5668Z" fill="#706F6F"/>
<path d="M61.8236 71.6422V82.2314H59.8332V81.3466C59.3167 82.0126 58.5686 82.3456 57.589 82.3456C56.9122 82.3456 56.2977 82.1838 55.7455 81.8603C55.2023 81.5369 54.7748 81.0754 54.4631 80.476C54.1514 79.8767 53.9956 79.1821 53.9956 78.3925C53.9956 77.6028 54.1514 76.9083 54.4631 76.3089C54.7748 75.7095 55.2023 75.248 55.7455 74.9246C56.2977 74.6011 56.9122 74.4393 57.589 74.4393C58.5063 74.4393 59.2232 74.7486 59.7397 75.367V71.6422H61.8236ZM57.9497 80.5189C58.4751 80.5189 58.9115 80.3286 59.2588 79.948C59.6061 79.5579 59.7798 79.0394 59.7798 78.3925C59.7798 77.7455 59.6061 77.2317 59.2588 76.8512C58.9115 76.4611 58.4751 76.2661 57.9497 76.2661C57.4153 76.2661 56.9745 76.4611 56.6272 76.8512C56.2799 77.2317 56.1062 77.7455 56.1062 78.3925C56.1062 79.0394 56.2799 79.5579 56.6272 79.948C56.9745 80.3286 57.4153 80.5189 57.9497 80.5189Z" fill="#706F6F"/>
<path d="M70.7922 78.421C70.7922 78.4495 70.7788 78.6493 70.7521 79.0204H65.3152C65.4132 79.4961 65.6448 79.8719 66.0099 80.1478C66.375 80.4237 66.8292 80.5617 67.3724 80.5617C67.7465 80.5617 68.076 80.5046 68.361 80.3904C68.6548 80.2667 68.9265 80.0765 69.1758 79.8196L70.2846 81.104C69.6077 81.9317 68.6192 82.3456 67.319 82.3456C66.5086 82.3456 65.7917 82.1791 65.1683 81.8461C64.5449 81.5036 64.064 81.0326 63.7256 80.4332C63.3872 79.8338 63.218 79.1536 63.218 78.3925C63.218 77.6408 63.3827 76.9653 63.7122 76.366C64.0507 75.7571 64.5093 75.2861 65.0882 74.9531C65.6759 74.6106 66.3305 74.4393 67.0518 74.4393C67.7554 74.4393 68.3921 74.6011 68.9621 74.9246C69.532 75.248 69.9773 75.7142 70.2979 76.3231C70.6274 76.9225 70.7922 77.6218 70.7922 78.421ZM67.0652 76.1233C66.5932 76.1233 66.1969 76.2661 65.8763 76.5515C65.5557 76.8369 65.3598 77.227 65.2885 77.7217H68.8285C68.7573 77.2365 68.5613 76.8512 68.2407 76.5657C67.9201 76.2708 67.5283 76.1233 67.0652 76.1233Z" fill="#706F6F"/>
<path d="M79.1825 74.5535L76.1501 82.2314H73.9994L70.9805 74.5535H73.1311L75.1216 79.7768L77.1787 74.5535H79.1825Z" fill="#706F6F"/>
<path d="M80.0328 74.5535H82.1167V82.2314H80.0328V74.5535ZM81.0748 73.4832C80.6918 73.4832 80.3801 73.3643 80.1397 73.1264C79.8992 72.8885 79.779 72.5936 79.779 72.2416C79.779 71.8896 79.8992 71.5946 80.1397 71.3568C80.3801 71.1189 80.6918 71 81.0748 71C81.4577 71 81.7694 71.1142 82.0099 71.3425C82.2503 71.5708 82.3705 71.8563 82.3705 72.1988C82.3705 72.5698 82.2503 72.879 82.0099 73.1264C81.7694 73.3643 81.4577 73.4832 81.0748 73.4832Z" fill="#706F6F"/>
<path d="M91.0907 78.421C91.0907 78.4495 91.0773 78.6493 91.0506 79.0204H85.6137C85.7117 79.4961 85.9432 79.8719 86.3083 80.1478C86.6735 80.4237 87.1277 80.5617 87.6709 80.5617C88.0449 80.5617 88.3744 80.5046 88.6594 80.3904C88.9533 80.2667 89.2249 80.0765 89.4743 79.8196L90.583 81.104C89.9062 81.9317 88.9177 82.3456 87.6175 82.3456C86.8071 82.3456 86.0902 82.1791 85.4668 81.8461C84.8434 81.5036 84.3625 81.0326 84.0241 80.4332C83.6857 79.8338 83.5164 79.1536 83.5164 78.3925C83.5164 77.6408 83.6812 76.9653 84.0107 76.366C84.3491 75.7571 84.8078 75.2861 85.3866 74.9531C85.9744 74.6106 86.6289 74.4393 87.3503 74.4393C88.0538 74.4393 88.6906 74.6011 89.2606 74.9246C89.8305 75.248 90.2758 75.7142 90.5964 76.3231C90.9259 76.9225 91.0907 77.6218 91.0907 78.421ZM87.3637 76.1233C86.8917 76.1233 86.4954 76.2661 86.1748 76.5515C85.8542 76.8369 85.6582 77.227 85.587 77.7217H89.127C89.0557 77.2365 88.8598 76.8512 88.5392 76.5657C88.2186 76.2708 87.8268 76.1233 87.3637 76.1233Z" fill="#706F6F"/>
<path d="M96.8462 74.4393C97.7368 74.4393 98.4537 74.7248 98.9969 75.2956C99.5491 75.8665 99.8251 76.7132 99.8251 77.8359V82.2314H97.7412V78.1784C97.7412 77.5695 97.6166 77.1176 97.3672 76.8226C97.1179 76.5182 96.7572 76.366 96.2852 76.366C95.7598 76.366 95.3412 76.542 95.0295 76.894C94.7178 77.2365 94.562 77.7503 94.562 78.4353V82.2314H92.478V74.5535H94.4684V75.4526C94.7445 75.1291 95.0874 74.8818 95.497 74.7105C95.9067 74.5297 96.3564 74.4393 96.8462 74.4393Z" fill="#706F6F"/>
<path d="M106.349 81.8603C106.145 82.0221 105.891 82.1458 105.588 82.2314C105.294 82.3075 104.982 82.3456 104.653 82.3456C103.798 82.3456 103.135 82.1125 102.663 81.6463C102.199 81.1801 101.968 80.4951 101.968 79.5912V76.4373H100.859V74.7248H101.968V72.8553H104.052V74.7248H105.842V76.4373H104.052V79.5627C104.052 79.8862 104.128 80.1383 104.279 80.3191C104.439 80.4903 104.662 80.5759 104.947 80.5759C105.276 80.5759 105.557 80.4808 105.788 80.2905L106.349 81.8603Z" fill="#706F6F"/>
<path d="M115.55 74.4393C116.218 74.4393 116.824 74.6058 117.367 74.9388C117.919 75.2623 118.351 75.7238 118.663 76.3231C118.975 76.913 119.13 77.6028 119.13 78.3925C119.13 79.1821 118.975 79.8767 118.663 80.476C118.351 81.0659 117.919 81.5274 117.367 81.8603C116.824 82.1838 116.218 82.3456 115.55 82.3456C114.633 82.3456 113.912 82.0364 113.386 81.4179V85H111.302V74.5535H113.293V75.4383C113.809 74.7723 114.562 74.4393 115.55 74.4393ZM115.19 80.5189C115.724 80.5189 116.16 80.3286 116.499 79.948C116.846 79.5579 117.02 79.0394 117.02 78.3925C117.02 77.7455 116.846 77.2317 116.499 76.8512C116.16 76.4611 115.724 76.2661 115.19 76.2661C114.655 76.2661 114.215 76.4611 113.867 76.8512C113.529 77.2317 113.36 77.7455 113.36 78.3925C113.36 79.0394 113.529 79.5579 113.867 79.948C114.215 80.3286 114.655 80.5189 115.19 80.5189Z" fill="#706F6F"/>
<path d="M120.525 71.6422H122.609V82.2314H120.525V71.6422Z" fill="#706F6F"/>
<path d="M131.784 74.5535V82.2314H129.807V81.318C129.53 81.651 129.201 81.9079 128.818 82.0887C128.435 82.2599 128.021 82.3456 127.576 82.3456C126.632 82.3456 125.884 82.0554 125.331 81.475C124.779 80.8947 124.503 80.0336 124.503 78.8919V74.5535H126.587V78.5637C126.587 79.8005 127.073 80.419 128.043 80.419C128.542 80.419 128.943 80.2477 129.245 79.9052C129.548 79.5532 129.7 79.0347 129.7 78.3496V74.5535H131.784Z" fill="#706F6F"/>
<path d="M136.132 82.3456C135.535 82.3456 134.952 82.2695 134.382 82.1172C133.812 81.9555 133.358 81.7557 133.02 81.5178L133.714 79.9195C134.035 80.1383 134.422 80.3191 134.876 80.4618C135.331 80.595 135.776 80.6616 136.212 80.6616C137.094 80.6616 137.535 80.4285 137.535 79.9623C137.535 79.7435 137.414 79.5865 137.174 79.4913C136.934 79.3962 136.564 79.3153 136.065 79.2487C135.477 79.1536 134.992 79.0442 134.609 78.9205C134.226 78.7968 133.892 78.578 133.607 78.264C133.331 77.9501 133.193 77.5029 133.193 76.9225C133.193 76.4373 133.322 76.0092 133.581 75.6381C133.848 75.2576 134.231 74.9626 134.729 74.7533C135.237 74.544 135.834 74.4393 136.519 74.4393C137.027 74.4393 137.53 74.5012 138.029 74.6249C138.537 74.739 138.955 74.9008 139.285 75.1101L138.59 76.6942C137.958 76.3136 137.268 76.1233 136.519 76.1233C136.074 76.1233 135.74 76.1899 135.518 76.3231C135.295 76.4563 135.184 76.6276 135.184 76.8369C135.184 77.0748 135.304 77.2413 135.544 77.3364C135.785 77.4315 136.168 77.5219 136.693 77.6075C137.281 77.7122 137.762 77.8264 138.136 77.9501C138.51 78.0642 138.835 78.2783 139.111 78.5923C139.387 78.9062 139.525 79.3439 139.525 79.9052C139.525 80.3809 139.391 80.8043 139.124 81.1753C138.857 81.5464 138.465 81.8366 137.949 82.0459C137.441 82.2457 136.836 82.3456 136.132 82.3456Z" fill="#706F6F"/>
<path d="M147.012 82.3456C146.415 82.3456 145.832 82.2695 145.262 82.1172C144.692 81.9555 144.238 81.7557 143.899 81.5178L144.594 79.9195C144.915 80.1383 145.302 80.3191 145.756 80.4618C146.21 80.595 146.656 80.6616 147.092 80.6616C147.974 80.6616 148.414 80.4285 148.414 79.9623C148.414 79.7435 148.294 79.5865 148.054 79.4913C147.813 79.3962 147.444 79.3153 146.945 79.2487C146.357 79.1536 145.872 79.0442 145.489 78.9205C145.106 78.7968 144.772 78.578 144.487 78.264C144.211 77.9501 144.073 77.5029 144.073 76.9225C144.073 76.4373 144.202 76.0092 144.46 75.6381C144.728 75.2576 145.11 74.9626 145.609 74.7533C146.117 74.544 146.713 74.4393 147.399 74.4393C147.907 74.4393 148.41 74.5012 148.909 74.6249C149.416 74.739 149.835 74.9008 150.164 75.1101L149.47 76.6942C148.837 76.3136 148.147 76.1233 147.399 76.1233C146.954 76.1233 146.62 76.1899 146.397 76.3231C146.175 76.4563 146.063 76.6276 146.063 76.8369C146.063 77.0748 146.184 77.2413 146.424 77.3364C146.665 77.4315 147.047 77.5219 147.573 77.6075C148.161 77.7122 148.642 77.8264 149.016 77.9501C149.39 78.0642 149.715 78.2783 149.991 78.5923C150.267 78.9062 150.405 79.3439 150.405 79.9052C150.405 80.3809 150.271 80.8043 150.004 81.1753C149.737 81.5464 149.345 81.8366 148.829 82.0459C148.321 82.2457 147.715 82.3456 147.012 82.3456Z" fill="#706F6F"/>
<path d="M151.691 74.5535H153.774V82.2314H151.691V74.5535ZM152.733 73.4832C152.35 73.4832 152.038 73.3643 151.797 73.1264C151.557 72.8885 151.437 72.5936 151.437 72.2416C151.437 71.8896 151.557 71.5946 151.797 71.3568C152.038 71.1189 152.35 71 152.733 71C153.115 71 153.427 71.1142 153.668 71.3425C153.908 71.5708 154.028 71.8563 154.028 72.1988C154.028 72.5698 153.908 72.879 153.668 73.1264C153.427 73.3643 153.115 73.4832 152.733 73.4832Z" fill="#706F6F"/>
<path d="M164.912 74.4393C165.812 74.4393 166.524 74.7248 167.05 75.2956C167.584 75.8569 167.851 76.7037 167.851 77.8359V82.2314H165.767V78.1784C165.767 77.5695 165.647 77.1176 165.407 76.8226C165.175 76.5182 164.841 76.366 164.405 76.366C163.915 76.366 163.528 76.5372 163.243 76.8797C162.958 77.2127 162.815 77.7122 162.815 78.3782V82.2314H160.731V78.1784C160.731 76.9701 160.277 76.366 159.369 76.366C158.888 76.366 158.505 76.5372 158.22 76.8797C157.935 77.2127 157.792 77.7122 157.792 78.3782V82.2314H155.709V74.5535H157.699V75.4383C157.966 75.1148 158.291 74.8675 158.674 74.6962C159.066 74.525 159.493 74.4393 159.957 74.4393C160.464 74.4393 160.923 74.5488 161.332 74.7676C161.742 74.9769 162.072 75.2861 162.321 75.6952C162.615 75.2956 162.984 74.9864 163.43 74.7676C163.884 74.5488 164.378 74.4393 164.912 74.4393Z" fill="#706F6F"/>
<path d="M173.967 74.4393C174.635 74.4393 175.241 74.6058 175.784 74.9388C176.336 75.2623 176.768 75.7238 177.08 76.3231C177.391 76.913 177.547 77.6028 177.547 78.3925C177.547 79.1821 177.391 79.8767 177.08 80.476C176.768 81.0659 176.336 81.5274 175.784 81.8603C175.241 82.1838 174.635 82.3456 173.967 82.3456C173.05 82.3456 172.329 82.0364 171.803 81.4179V85H169.719V74.5535H171.71V75.4383C172.226 74.7723 172.979 74.4393 173.967 74.4393ZM173.606 80.5189C174.141 80.5189 174.577 80.3286 174.916 79.948C175.263 79.5579 175.437 79.0394 175.437 78.3925C175.437 77.7455 175.263 77.2317 174.916 76.8512C174.577 76.4611 174.141 76.2661 173.606 76.2661C173.072 76.2661 172.631 76.4611 172.284 76.8512C171.946 77.2317 171.776 77.7455 171.776 78.3925C171.776 79.0394 171.946 79.5579 172.284 79.948C172.631 80.3286 173.072 80.5189 173.606 80.5189Z" fill="#706F6F"/>
<path d="M178.942 71.6422H181.026V82.2314H178.942V71.6422Z" fill="#706F6F"/>
<path d="M190 78.421C190 78.4495 189.987 78.6493 189.96 79.0204H184.523C184.621 79.4961 184.853 79.8719 185.218 80.1478C185.583 80.4237 186.037 80.5617 186.58 80.5617C186.954 80.5617 187.284 80.5046 187.569 80.3904C187.863 80.2667 188.134 80.0765 188.384 79.8196L189.492 81.104C188.816 81.9317 187.827 82.3456 186.527 82.3456C185.716 82.3456 185 82.1791 184.376 81.8461C183.753 81.5036 183.272 81.0326 182.933 80.4332C182.595 79.8338 182.426 79.1536 182.426 78.3925C182.426 77.6408 182.591 76.9653 182.92 76.366C183.258 75.7571 183.717 75.2861 184.296 74.9531C184.884 74.6106 185.538 74.4393 186.26 74.4393C186.963 74.4393 187.6 74.6011 188.17 74.9246C188.74 75.248 189.185 75.7142 189.506 76.3231C189.835 76.9225 190 77.6218 190 78.421ZM186.273 76.1233C185.801 76.1233 185.405 76.2661 185.084 76.5515C184.764 76.8369 184.568 77.227 184.496 77.7217H188.036C187.965 77.2365 187.769 76.8512 187.449 76.5657C187.128 76.2708 186.736 76.1233 186.273 76.1233Z" fill="#706F6F"/>
</svg>
