<svg width="638" height="128" viewBox="0 0 638 128" fill="none" xmlns="http://www.w3.org/2000/svg">
<path d="M42 55.6299L73.7957 77.8825V50.3794L42 28V55.6299Z" fill="#0061FE"/>
<path d="M105.591 28.0014L73.7954 50.3808V77.8824L105.591 55.6297V28.0014Z" fill="#1E1919"/>
<path d="M105.591 72.6401L73.7954 50.3874V77.8905L105.591 100.27V72.6401Z" fill="#0061FE"/>
<path d="M42 100.268L73.7957 77.889V50.3874L42 72.6401V100.268Z" fill="#1E1919"/>
<path d="M141.95 37.5274H161.903C174.663 37.5274 185.084 44.9318 185.084 61.7293V65.3189C185.084 82.1789 175.251 89.8084 162.204 89.8084H141.95V37.5274ZM153.096 46.9955V80.2152H161.678C168.859 80.2152 173.775 75.4499 173.775 64.9687V62.2546C173.775 51.7734 168.721 47.0081 161.303 47.0081H153.096V46.9955ZM191.014 47.5084H199.883L201.272 57.3392C202.961 50.5977 207.289 47.1456 215.133 47.1456H217.848V58.3648H213.307C204.212 58.3648 202.01 61.5166 202.01 70.4594V89.8209H191.014V47.5084ZM220.2 69.5714V68.3957C220.2 54.1748 229.294 46.5453 241.617 46.5453C254.227 46.5453 262.959 54.3124 262.959 68.3957V69.5714C262.959 83.5046 254.377 90.909 241.617 90.909C227.981 90.909 220.2 83.5046 220.2 69.5714ZM251.812 69.4213V68.3957C251.812 60.4785 247.847 55.8633 241.617 55.8633C235.462 55.8633 231.346 60.1909 231.346 68.3957V69.4213C231.346 77.0508 235.237 81.3033 241.542 81.3033C247.859 81.3033 251.812 77.1259 251.812 69.4213ZM268.751 47.5084H277.995L279.096 55.5756C281.373 50.1474 286.064 46.5578 293.032 46.5578C303.816 46.5578 310.859 54.3249 310.859 68.5583V69.734C310.859 83.6672 303.015 90.9215 293.032 90.9215C286.29 90.9215 281.811 87.9198 279.534 83.0044V104.342H268.751V47.5084ZM299.7 69.4964V68.5458C299.7 60.1158 295.372 55.9383 289.58 55.9383C283.425 55.9383 279.309 60.6286 279.309 68.4708V69.2837C279.309 76.7632 283.275 81.4534 289.355 81.4534C295.672 81.4534 299.7 77.276 299.7 69.4964ZM327.059 82.1163L326.184 89.8209H316.651V33.35H327.435V55.0503C329.787 49.5471 334.478 46.5453 341.146 46.5453C351.191 46.6203 358.672 53.5869 358.672 67.6578V68.9085C358.672 82.9918 351.629 90.909 340.845 90.909C333.877 90.909 329.336 87.5445 327.059 82.1163ZM347.601 68.9085V67.8829C347.601 60.1158 343.347 55.8633 337.48 55.8633C331.388 55.8633 327.21 60.7787 327.21 68.033V68.9085C327.21 76.8257 331.238 81.3784 337.33 81.3784C343.71 81.3784 347.601 77.276 347.601 68.9085ZM363.588 69.5714V68.3957C363.588 54.1748 372.608 46.5453 384.93 46.5453C397.54 46.5453 406.347 54.3124 406.347 68.3957V69.5714C406.347 83.5046 397.691 90.909 384.93 90.909C371.282 90.909 363.588 83.5046 363.588 69.5714ZM395.189 69.4213V68.3957C395.189 60.4785 391.223 55.8633 384.993 55.8633C378.838 55.8633 374.722 60.1909 374.722 68.3957V69.4213C374.722 77.0508 378.613 81.3033 384.918 81.3033C391.31 81.3033 395.189 77.1259 395.189 69.4213ZM420.721 67.8829L405.91 47.4958H418.595L427.176 60.1783L435.833 47.4958H448.443L433.406 67.8079L449.244 89.8084H436.772L427.014 75.8001L417.556 89.8084H404.646L420.721 67.8829Z" fill="#1E1919"/>
<path d="M486.496 90.88C499.096 90.88 505.72 83.824 505.648 75.4C505.576 64.312 496.792 62.368 488.296 60.64C481.096 59.128 474.472 58.192 474.472 51.928C474.472 47.536 477.856 43.72 485.056 43.72C493.12 43.72 496.936 47.176 497.368 53.584H504.64C504.136 43.792 497.872 37.744 485.2 37.744C473.32 37.744 467.416 44.44 467.416 52C467.416 62.728 476.128 64.672 484.408 66.328C491.752 67.696 498.664 68.848 498.592 75.544C498.592 80.296 494.92 84.616 486.568 84.616C477.28 84.616 473.176 80.296 472.96 72.52H465.472C465.904 84.112 471.592 90.88 486.496 90.88ZM516.548 43.432C519.788 43.432 521.444 41.992 521.444 38.464C521.444 34.864 519.788 33.496 516.548 33.496C513.308 33.496 511.58 34.864 511.58 38.464C511.58 42.136 513.02 43.432 516.548 43.432ZM520.004 89.8V48.688H512.876V89.8H520.004ZM545.886 108.664C560.502 108.664 566.838 103.048 566.838 94.912C566.838 87.856 562.086 83.392 551.07 83.392H541.422C536.238 83.464 534.294 82.24 534.294 79.936C534.294 77.488 536.166 75.976 544.59 75.976H545.958C557.334 75.976 564.174 70.576 564.174 61.936V61.648C564.174 55.816 560.142 50.488 552.582 49.552H552.438C561.51 49.264 564.102 46.744 564.102 40.912V39.688H556.182V40.48C556.182 45.664 554.886 47.68 546.894 48.112C545.958 48.112 543.942 48.256 543.222 48.4C533.718 49.336 528.318 54.232 528.318 61.792V61.864C528.318 68.056 531.27 72.016 537.246 73.744C531.198 74.824 528.102 77.704 528.102 81.736C528.102 85.624 530.55 88.288 535.878 89.08C529.398 90.664 526.59 94.048 526.59 98.584C526.59 104.776 530.982 108.664 545.238 108.664H545.886ZM545.958 70.792C539.118 70.792 535.302 67.696 535.302 62.08V61.936C535.23 56.464 539.046 53.224 544.95 52.864C545.454 52.792 545.886 52.72 546.534 52.72C552.222 52.72 557.118 54.952 557.19 61.864V62.008C557.19 67.552 553.23 70.792 545.958 70.792ZM544.662 102.832C536.742 102.832 533.43 100.024 533.43 96.496V96.424C533.43 92.464 536.598 89.8 543.15 89.296H550.782C557.766 89.296 560.358 91.672 560.358 95.272C560.358 99.736 556.254 102.832 545.958 102.832H544.662ZM578.721 68.272C578.721 59.56 583.185 53.656 591.249 53.656C599.241 53.656 602.337 58.768 602.337 66.4V89.8H609.393V64.816C609.393 54.448 603.921 47.536 593.337 47.536C585.561 47.536 580.449 51.712 578.289 58.048L577.569 48.688H571.665V89.8H578.721V68.272Z" fill="#0061FE"/>
</svg>
