<svg id="LOGO_GERCOP-QUADRI_LOGO_GERCOP-QUARDI" data-name="LOGO GERCOP-QUADRI_LOGO GERCOP-QUARDI" xmlns="http://www.w3.org/2000/svg" width="126.743" height="39.793" viewBox="0 0 126.743 39.793">
  <path id="Tracé_1" data-name="Tracé 1" d="M28.667,171.591h7.586a8.9,8.9,0,0,1-.444,3.379,7.433,7.433,0,0,1-1.53,2.6,6.892,6.892,0,0,1-2.393,1.68,7.8,7.8,0,0,1-3.077.6,8.222,8.222,0,0,1-2.148-.277,8.367,8.367,0,0,1-1.931-.776,7.835,7.835,0,0,1-2.887-2.773,7.622,7.622,0,0,1-.814-1.851,7.52,7.52,0,0,1,0-4.123,7.6,7.6,0,0,1,.814-1.85,7.691,7.691,0,0,1,1.258-1.562,8.086,8.086,0,0,1,3.555-1.981,8.633,8.633,0,0,1,5.31.33,7.988,7.988,0,0,1,2.633,1.751l-2.253,2.279a4.532,4.532,0,0,0-1.508-1.2,4.457,4.457,0,0,0-2.04-.462,4.537,4.537,0,0,0-1.8.364,4.617,4.617,0,0,0-1.476,1,4.749,4.749,0,0,0-.993,1.514,5.109,5.109,0,0,0,0,3.786,4.748,4.748,0,0,0,.993,1.514,4.616,4.616,0,0,0,1.476,1,4.505,4.505,0,0,0,1.8.364,5.665,5.665,0,0,0,1.585-.2,3.832,3.832,0,0,0,1.194-.563,2.962,2.962,0,0,0,.8-.885,3.934,3.934,0,0,0,.451-1.171H28.667Z" transform="translate(-20.74 -140.118)" fill="#264897"/>
  <path id="Tracé_2" data-name="Tracé 2" d="M180.08,164.2h10.908v3.109h-7.3v3.165h4.681v3.1h-4.681v3.017h7.4v3.1H180.08Z" transform="translate(-154.44 -139.961)" fill="#264897"/>
  <path id="Tracé_3" data-name="Tracé 3" d="M318.47,174.64h-2.3v5.045H312.56V164.2h6.787a6.378,6.378,0,0,1,2.243.381,5.311,5.311,0,0,1,1.77,1.07,4.828,4.828,0,0,1,1.162,1.651,5.31,5.31,0,0,1,.417,2.135,5.635,5.635,0,0,1-.206,1.543,4.934,4.934,0,0,1-.581,1.315,4.53,4.53,0,0,1-.911,1.048,5.216,5.216,0,0,1-1.2.763l3.268,5.581h-4.145Zm.729-3.1a2.261,2.261,0,0,0,.832-.161,2.155,2.155,0,0,0,.677-.428,1.96,1.96,0,0,0,.455-.66,2.348,2.348,0,0,0,0-1.725,2.07,2.07,0,0,0-.455-.677,2.115,2.115,0,0,0-.677-.444,2.17,2.17,0,0,0-.832-.161h-3.028v4.247Z" transform="translate(-265.602 -139.959)" fill="#264897"/>
  <path id="Tracé_4" data-name="Tracé 4" d="M578.3,172.138a7.353,7.353,0,0,1,.29-2.071,7.666,7.666,0,0,1,2.076-3.426,8.079,8.079,0,0,1,3.567-1.987,8.6,8.6,0,0,1,4.3,0,8.2,8.2,0,0,1,3.585,1.987,7.616,7.616,0,0,1,2.092,3.426,7.54,7.54,0,0,1,0,4.14,7.666,7.666,0,0,1-.817,1.859,7.864,7.864,0,0,1-2.914,2.782,8.4,8.4,0,0,1-8.165,0,7.9,7.9,0,0,1-2.9-2.784,7.614,7.614,0,0,1-.816-1.857A7.34,7.34,0,0,1,578.3,172.138Zm3.444.011a4.91,4.91,0,0,0,.37,1.9,4.756,4.756,0,0,0,1,1.519,4.615,4.615,0,0,0,1.482,1.009,4.535,4.535,0,0,0,1.809.364,4.59,4.59,0,0,0,1.826-.364,4.533,4.533,0,0,0,1.476-1.009,4.765,4.765,0,0,0,.991-1.519,5.13,5.13,0,0,0,0-3.8,4.766,4.766,0,0,0-.991-1.519,4.534,4.534,0,0,0-1.476-1.009,4.592,4.592,0,0,0-1.83-.364,4.536,4.536,0,0,0-1.809.364,4.613,4.613,0,0,0-1.482,1.009,4.754,4.754,0,0,0-1,1.519A4.9,4.9,0,0,0,581.743,172.149Z" transform="translate(-488.58 -140.113)" fill="#264897"/>
  <path id="Tracé_5" data-name="Tracé 5" d="M735.608,175.125v4.752H732v-15.5h6.689a6.054,6.054,0,0,1,2.253.405,5.349,5.349,0,0,1,1.77,1.126,5.088,5.088,0,0,1,1.163,1.7,5.5,5.5,0,0,1,.415,2.159,5.594,5.594,0,0,1-.41,2.171,4.966,4.966,0,0,1-1.144,1.693,5.21,5.21,0,0,1-1.756,1.1,6.145,6.145,0,0,1-2.229.394Zm2.929-3.1a1.989,1.989,0,0,0,.832-.175,2.224,2.224,0,0,0,.677-.483,2.165,2.165,0,0,0,.455-.711,2.455,2.455,0,0,0,0-1.77,2.3,2.3,0,0,0-.455-.729,2.167,2.167,0,0,0-.677-.5,1.921,1.921,0,0,0-.832-.182h-2.929v4.546Z" transform="translate(-617.548 -140.11)" fill="#264897"/>
  <path id="Tracé_6" data-name="Tracé 6" d="M227.948,32.732H136.33L182.139,13.57Z" transform="translate(-117.73 -13.57)" fill="#e21618"/>
  <path id="Tracé_7" data-name="Tracé 7" d="M452.449,176.15a4.454,4.454,0,0,1-2.039.46,4.524,4.524,0,0,1-1.8-.362,4.582,4.582,0,0,1-1.476-1,4.714,4.714,0,0,1-.993-1.513,4.907,4.907,0,0,1,0-3.7,4.74,4.74,0,0,1,.993-1.514,4.577,4.577,0,0,1,1.476-1,4.688,4.688,0,0,1,3.84.1,4.548,4.548,0,0,1,1.508,1.2l2.245-2.279a7.969,7.969,0,0,0-2.625-1.741,8.31,8.31,0,0,0-3.167-.6,8.431,8.431,0,0,0-2.148.27,8.069,8.069,0,0,0-3.555,1.982,7.626,7.626,0,0,0-2.071,3.411,7.312,7.312,0,0,0-.286,2h0v.064h0a7.324,7.324,0,0,0,.286,2,7.608,7.608,0,0,0,.813,1.849,7.689,7.689,0,0,0,1.258,1.562,8.087,8.087,0,0,0,3.553,1.979,8.628,8.628,0,0,0,5.31-.33,7.992,7.992,0,0,0,2.625-1.741l-2.245-2.279A4.547,4.547,0,0,1,452.449,176.15Z" transform="translate(-374.507 -139.952)" fill="#264897"/>
</svg>
