<svg xmlns="http://www.w3.org/2000/svg" xmlns:xlink="http://www.w3.org/1999/xlink" viewBox="0 0 100 58" width="100" height="58">
  <defs/>
  <defs>
    <path id="a" d="M0 .1h19.1v33.4H0z"/>
    <path id="c" d="M.6.8h86v13.1H.6z"/>
  </defs>
  <g fill="none" fill-rule="evenodd">
    <g transform="translate(0 .4)">
      <mask id="b" fill="#fff">
        <use xlink:href="#a"/>
      </mask>
      <path fill="#A92683" d="M13.2 21.7c0-2-1.2-3.4-3.7-3.4H6v11.2h3.6c2.5 0 3.7-1.2 3.7-3.3v-4.5zm-.6-14.3c0-2.3-1-3.4-3.3-3.4C7.1 4 6 5 6 7.4v7.2h3c2.5 0 3.7-1.3 3.7-3.3V7.4zm-3 26H0V7.3C0 2.7 3.4 0 9.3 0c6 0 9.3 2.6 9.3 7v4.4c0 2.1-1.4 3.8-3.5 4.7 2.5.8 4 2.7 4 5.3v4.8c0 4.3-2.7 7.2-9.6 7.2z" mask="url(#b)"/>
    </g>
    <path fill="#A92683" d="M25.5 57.8v-6.5h1.3v6.5h-1.3zm0-7.5v-1.2h1.3v1.2h-1.3zM34.9 57.8V53c0-.5-.3-.8-.7-.8-.5 0-.8.3-.8.8v4.8h-1.2V53c0-.6-.3-.8-.8-.8-.4 0-.7.2-.7.8v4.8h-1.3v-6.5h1.3v.4c.1-.3.6-.5 1-.5.8 0 1.2.2 1.4.6.3-.4.7-.6 1.4-.6 1.2 0 1.7.6 1.7 1.8v4.8h-1.3zM44.1 57.8V53c0-.6-.2-.8-.7-.8-.4 0-.7.2-.7.8v4.8h-1.3V53c0-.5-.2-.8-.7-.8-.4 0-.7.3-.7.8v4.8h-1.3v-6.5H40v.4c.1-.3.6-.5 1-.5.8 0 1.2.2 1.4.6.2-.4.7-.6 1.3-.6 1.3 0 1.7.6 1.7 1.8v4.8h-1.3zM50.8 53c0-.6-.4-.8-.9-.8-.4 0-.8.3-.8.8v3c0 .7.4 1 .8 1 .5 0 .8-.3.8-1v-3zm-.9 5c-1.3 0-2-.7-2-1.9V53c0-1.2.7-1.8 2-1.8 1.4 0 2.1.6 2.1 1.8V56c0 1.2-.7 1.8-2 1.8zM57.4 53c0-.6-.3-.8-.8-.8s-.8.2-.8.8v3c0 .7.3 1 .8 1s.8-.3.8-1v-3zm-.5 5c-.5 0-1-.3-1.1-.6v.4h-1.3v-8.7h1.3v2.6c.1-.3.6-.5 1-.5 1.3 0 1.9.6 1.9 1.8V56c0 1.2-.6 1.8-1.8 1.8zM61.2 57.8v-6.5h1.3v6.5h-1.3zm0-7.5v-1.2h1.3v1.2h-1.3zM65.1 57.8v-8.7h1.3v8.7zM69 57.8v-6.5h1.3v6.5H69zm0-7.5v-1.2h1.3v1.2H69zM75.6 53c0-.6-.3-.8-.8-.8-.4 0-.8.2-.8.8v1h1.6v-1zm-.8 5c-1.3 0-2-.7-2-1.9V53c0-1.2.7-1.8 2-1.8s2.1.6 2.1 1.8v1.9H74V56c0 .6.4.8.8.8.5 0 .8-.2.8-.8v-.4H77v.4c0 1.2-.7 1.8-2 1.8zM80.7 53.6v4.2h-1.3v-6.5h1.2v.8c.3-.6 1-.9 1.8-.9v1.2c-1-.2-1.7.3-1.7 1.2"/>
    <g transform="translate(12.9 32.2)">
      <mask id="d" fill="#fff">
        <use xlink:href="#c"/>
      </mask>
      <path fill="#A92683" d="M.6 6s14.8 5.7 39 4c29-2 47-9.2 47-9.2s-1.5 1-4.7 2c-5 1.8-23.8 8-46.6 10.7C22.6 14.9 16 12.2 3 7.2 2 7 1.5 6.3.6 6" mask="url(#d)"/>
    </g>
    <path fill="#A92683" d="M28.4 33.8c-3.5 0-4.8-1.6-4.8-4V19.5c0-2.4 1.3-4 4.8-4H31v2.3h-2.7c-1.2 0-1.8.7-1.8 1.8v3.7h4v2.2h-4v4.3c0 1.1.6 1.7 1.8 1.7h2.7v2.3h-2.7zM41.3 33.8V19.4c0-1.2-.7-1.9-1.8-1.9-1 0-1.7.7-1.7 1.9v14.4h-3V19.3c0-2.5 1.8-4 4.7-4 3 0 4.8 1.5 4.8 4v14.5h-3zM53.5 33.8c-3.5 0-4.8-1.6-4.8-4V19.5c0-2.4 1.3-4 4.8-4h2.7v2.3h-2.6c-1.3 0-1.9.7-1.9 1.8v3.7h4v2.2h-4v4.3c0 1.1.6 1.7 1.9 1.7h2.6v2.3h-2.7zM67 19.6c0-1.1-.7-1.8-2-1.8h-1.9v13.8h2c1.2 0 1.8-.7 1.8-1.8V19.6zm-2 14.2h-4.9V15.6h5c3.4 0 4.8 1.5 4.8 4v10.2c0 2.4-1.4 4-4.8 4zM74.5 33.8V15.6h3v18.2zM86.9 34c-3 0-4.8-1.4-4.8-4V19.4c0-2.5 1.8-4 4.8-4s4.7 1.5 4.7 4v2h-3v-2c0-1.2-.6-1.8-1.7-1.8-1.2 0-1.8.6-1.8 1.9v10.5c0 1.3.6 2 1.8 2 1 0 1.7-.7 1.7-2V28h3v2c0 2.6-1.7 4-4.7 4"/>
  </g>
</svg>
