<svg id="Groupe_3938" data-name="Groupe 3938" xmlns="http://www.w3.org/2000/svg" xmlns:xlink="http://www.w3.org/1999/xlink" width="216.331" height="88.752" viewBox="0 0 216.331 88.752">
  <defs>
    <clipPath id="clip-path">
      <rect id="Rectangle_3485" data-name="Rectangle 3485" width="216.331" height="88.752" fill="none"/>
    </clipPath>
  </defs>
  <path id="Tracé_2219" data-name="Tracé 2219" d="M14.719,223.693h8.715V208.537H39.462v15.155h8.716V185.781H39.462v14.526H23.435V185.781H14.719Z" transform="translate(-11.136 -140.557)" fill="#fff"/>
  <g id="Groupe_3937" data-name="Groupe 3937">
    <g id="Groupe_3936" data-name="Groupe 3936" clip-path="url(#clip-path)">
      <path id="Tracé_2220" data-name="Tracé 2220" d="M20.094,40.139A20.065,20.065,0,0,0,40.139,20.045V15.591H24.016l-4.358,8.231H30.815a11.442,11.442,0,0,1-10.722,8.086c-6.44,0-11.379-5.568-11.379-11.863,0-6.246,4.939-11.814,11.379-11.814a10.874,10.874,0,0,1,6.633,2.276L30.7,3a20.337,20.337,0,0,0-10.6-3,20.07,20.07,0,1,0,0,40.139" fill="#fff"/>
      <path id="Tracé_2221" data-name="Tracé 2221" d="M330.641,42.487h9.926L360.419,4.574h-9.926l-8.57,16.559L333.3,4.574h-9.877l13.7,25.468Z" transform="translate(-244.697 -3.461)" fill="#fff"/>
      <path id="Tracé_2222" data-name="Tracé 2222" d="M194.922,43.6a16.7,16.7,0,0,0,16.9-16.9V4.574h-8.715V26.75c0,5.229-3.438,8.619-8.183,8.619s-8.183-3.389-8.183-8.619V4.574h-8.715V26.7a16.73,16.73,0,0,0,16.9,16.9" transform="translate(-134.689 -3.461)" fill="#fff"/>
      <path id="Tracé_2223" data-name="Tracé 2223" d="M681.625,194.012h16.511v-8.231H672.909v37.912h25.226v-8.231H681.625Z" transform="translate(-509.108 -140.558)" fill="#fff"/>
      <path id="Tracé_2224" data-name="Tracé 2224" d="M727.753,253.685h8.293l4.309-8.231h-12.6Z" transform="translate(-550.601 -185.705)" fill="#fff"/>
      <path id="Tracé_2225" data-name="Tracé 2225" d="M804.55,200.306V185.781h-8.716v37.912h8.716V208.537h13.891v-8.231Z" transform="translate(-602.11 -140.557)" fill="#fff"/>
      <path id="Tracé_2226" data-name="Tracé 2226" d="M539.857,207.957c0,5.229-3.438,8.619-8.183,8.619s-8.183-3.389-8.183-8.619V185.781h-8.715v22.127a16.9,16.9,0,0,0,33.8,0V185.781h-8.716Z" transform="translate(-389.467 -140.558)" fill="#fff"/>
      <path id="Tracé_2227" data-name="Tracé 2227" d="M377.688,201.251a20.035,20.035,0,1,0-15.118,19.481l2.916,5.116,7.505-3.825-2.76-5.084-.172.083a20.073,20.073,0,0,0,7.628-15.771m-31.424,0c0-6.246,4.939-11.814,11.379-11.814,6.391,0,11.33,5.568,11.33,11.814,0,6.294-4.939,11.863-11.33,11.863-6.44,0-11.379-5.568-11.379-11.863" transform="translate(-255.382 -137.096)" fill="#fff"/>
      <path id="Tracé_2228" data-name="Tracé 2228" d="M184.791,181.206a20.07,20.07,0,1,0,20.045,20.045,20.065,20.065,0,0,0-20.045-20.045m0,31.908c-6.44,0-11.379-5.568-11.379-11.863,0-6.246,4.939-11.814,11.379-11.814,6.391,0,11.33,5.568,11.33,11.814,0,6.295-4.939,11.863-11.33,11.863" transform="translate(-124.606 -137.096)" fill="#fff"/>
    </g>
  </g>
</svg>
