<?xml version="1.0" encoding="utf-8"?>
<!-- Generator: Adobe Illustrator 27.0.1, SVG Export Plug-In . SVG Version: 6.00 Build 0)  -->
<svg version="1.1" id="Calque_1" xmlns="http://www.w3.org/2000/svg" xmlns:xlink="http://www.w3.org/1999/xlink" x="0px" y="0px" viewBox="0 0 672.2 172.2" style="enable-background:new 0 0 672.2 172.2;" xml:space="preserve">
<path d="M154.7,160.4v9.9c-32.5-4.1-123.9-4.1-154.5,0.3v-10.2v0.6v-10.2c30.9,4.4,121.7,4.4,154.5,0.3v9.9V160.4z"/>
<path d="M316.5,71.6L282.1,1.3c-0.3-0.6-0.8-1.1-1.9-1.1H279c-1,0-1.6,0.5-1.9,1.1l-33.4,67.5l-29.6-33.1l29.2-30.7
	c1.5-1.6,0.3-3.8-1.8-3.8h-11.2c-1,0-1.7,0.5-2.1,1L200,31.9V3.7c0-1.4-1.2-2.5-2.7-2.5h-9.8c-1.6,0-2.7,1.1-2.7,2.5v68.1
	c0,1.4,1.1,2.5,2.7,2.5h9.8c1.5,0,2.7-1.2,2.7-2.5V39.9l29.2,33.6c0.2,0.3,0.9,0.7,2,0.7h12.2c0.1,0,0.2,0,0.4,0c0.1,0,0.3,0,0.4,0
	h9.7c1.8,0,2.8-1,3.2-2.1l5.5-11.3h33.5l5.5,11.3c0.8,1.5,1.6,2.1,3.2,2.1h9.7C316.3,74.3,317.2,73,316.5,71.6z M268.2,49.3l11-23
	h0.3l11.2,23H268.2z"/>
<path d="M316.6,3.2c0-1,1-2,2.1-2h10.6c1.2,0,2.1,0.9,2.1,2v42.7c0,8.9,6.5,15.9,16.2,15.9c9.7,0,16.3-7,16.3-15.8V3.2
	c0-1,0.9-2,2.1-2h10.6c1.1,0,2.1,0.9,2.1,2v43.5c0,15.9-13.5,28.7-31.2,28.7c-17.6,0-31.1-12.8-31.1-28.7V3.2z"/>
<path d="M390.4,3.2c0-1,0.9-2,2.1-2h45.6c1.2,0,2.1,0.9,2.1,2v8.6c0,1-0.9,2-2.1,2h-33.1v19.6h27.6c1.1,0,2.1,0.9,2.1,2v8.6
	c0,1-1,2-2.1,2h-27.6v26.4c0,1-1,2-2.1,2h-10.3c-1.2,0-2.1-0.9-2.1-2V3.2z"/>
<path d="M601.1,71.6L566.7,1.3c-0.3-0.6-0.8-1.1-1.9-1.1h-1.1c-1,0-1.6,0.5-1.9,1.1l-32.9,66.5l-12.4-66c-0.1-0.8-0.8-1.6-2-1.6
	h-1.8c-1,0-1.6,0.4-1.9,1l-24.6,49.3h-0.3L461.1,1.2c-0.3-0.6-1-1-1.9-1h-1.8c-1.2,0-1.9,0.7-2,1.6l-13.3,70.2
	c-0.2,1.5,0.7,2.4,2.1,2.4h10.1c1,0,1.9-0.8,2-1.6l6.5-39.6h0.3l19.8,41.1c0.3,0.6,0.9,1.1,1.9,1.1h2c1,0,1.7-0.5,1.9-1.1l19.6-41.1
	h0.3l6.6,39.6c0.2,0.7,1.1,1.6,2.1,1.6h10.2c0.2,0,0.4,0,0.6-0.1c0.2,0,0.4,0.1,0.6,0.1h9.7c1.8,0,2.8-1,3.2-2.1l5.5-11.3h33.5
	l5.5,11.3c0.8,1.5,1.6,2.1,3.2,2.1h9.7C600.9,74.3,601.8,73,601.1,71.6z M552.8,49.3l11-23h0.3l11.2,23H552.8z"/>
<path d="M605.7,2c0-1,1-1.9,2.1-1.9h2.8l46.6,46.2h0.1V3.2c0-1,0.9-2,2.1-2h10.3c1.1,0,2.1,0.9,2.1,2v70.3c0,1-1,1.9-2.1,1.9H667
	l-46.8-48h-0.1v44.9c0,1-0.9,2-2.1,2h-10.2c-1.1,0-2.1-0.9-2.1-2V2z"/>
<path d="M184.8,99.8c0-1,0.9-2,2.1-2h25.6c13.3,0,23.6,8.4,23.6,19.3c0,8-7.1,14.3-12.3,16.6c5.9,1.8,14.6,7.4,14.6,17
	c0,11.7-10.7,20.2-24.4,20.2h-27.1c-1.2,0-2.1-0.9-2.1-2V99.8z M211.2,128.6c5.7,0,9.6-4.2,9.6-9.4c0-5.2-3.9-8.9-9.6-8.9h-12v18.3
	H211.2z M212.8,158.6c5.6,0,10.1-4.1,10.1-9.5c0-5.2-5.6-9.1-11.4-9.1h-12.2v18.6H212.8z"/>
<path d="M248.3,99.8c0-1,0.9-2,2.1-2h32c13.4,0,24.4,10,24.4,22.5c0,9.6-6.8,17.4-16.6,21.1l15.3,26.5c0.8,1.4,0,3-1.9,3h-11.8
	c-1,0-1.6-0.5-1.8-0.9l-14.9-27.7h-12.4V169c0,1-1,2-2.1,2h-10.3c-1.2,0-2.1-0.9-2.1-2V99.8z M281.2,131.2c5.9,0,11.1-4.8,11.1-10.7
	c0-5.5-5.1-10.1-11.1-10.1h-18.2v20.8H281.2z"/>
<path d="M351.8,96.8c22.4,0,40.3,16.8,40.3,37.7c0,20.9-17.9,37.5-40.3,37.5c-22.4,0-40.2-16.6-40.2-37.5
	C311.6,113.6,329.4,96.8,351.8,96.8 M351.8,158.4c14.1,0,25.7-10.8,25.7-23.9c0-13.2-11.6-24.1-25.7-24.1s-25.6,11-25.6,24.1
	C326.1,147.7,337.7,158.4,351.8,158.4"/>
<path d="M389.1,168.3l34.8-70.3c0.3-0.6,0.9-1.1,1.9-1.1h1.1c1.1,0,1.6,0.5,1.9,1.1l34.5,70.3c0.7,1.4-0.2,2.7-1.9,2.7h-9.7
	c-1.7,0-2.5-0.6-3.2-2.1l-5.5-11.3h-33.5l-5.5,11.3c-0.4,1-1.5,2.1-3.2,2.1H391C389.3,171,388.4,169.6,389.1,168.3 M437.4,146
	l-11.2-23h-0.3l-11,23H437.4z"/>
<path d="M467.8,99.8c0-1,0.9-2,2-2h26.5c21.6,0,39.3,16.4,39.3,36.5c0,20.3-17.7,36.7-39.3,36.7h-26.5c-1.1,0-2-0.9-2-2V99.8z
	 M495,158.2c14.5,0,25.2-10.2,25.2-23.9c0-13.6-10.6-23.8-25.2-23.8h-12.8v47.7H495z"/>
<path d="M116.8,115.1c-7.2,0.8-23.3,1.4-39.4,1.6c-16-0.1-32.2-0.7-39.4-1.6c-3.7-0.4-3.7-2.6-2-6c7.6-15.2,33.6-62,37.9-67.8
	c1.3-1.9,2.3-3,3.5-3c1.2-0.1,2.2,1.1,3.5,3c4.2,5.9,30.3,52.6,37.9,67.8C120.5,112.5,120.5,114.6,116.8,115.1 M113.7,64.2
	C96.1,33.9,81.2,4.5,77.6,0.9h-0.2h-0.2c-3.6,3.6-18.5,33.1-36,63.4C23.6,94.5,3.7,125.7,0,134.4c27.2-0.7,52-1.1,76.9-1h0.6H78
	c24.9,0,49.7,0.3,76.9,1C151.1,125.7,131.3,94.5,113.7,64.2"/>
</svg>
