<svg id="logo_laBoutik" xmlns="http://www.w3.org/2000/svg" width="386.338" height="70" viewBox="0 0 386.338 70">
  <path id="Tracé_13" data-name="Tracé 13" d="M340.918,333.5l-6.75,11.693a.848.848,0,0,1-1.159.31l-.717-.413a.848.848,0,0,1-.31-1.159l6.751-11.693a2.5,2.5,0,0,0,0-2.5l-6.751-11.693a.849.849,0,0,1,.31-1.159l.717-.413a.849.849,0,0,1,1.159.31l6.75,11.693a2.5,2.5,0,0,0,2.165,1.248H361.46a1.677,1.677,0,0,0,1.452-2.515l-8.965-15.528a3.271,3.271,0,0,0-2.834-1.635h-20.4a3.272,3.272,0,0,0-2.833,1.635l-10.2,17.67a3.283,3.283,0,0,0,0,3.273l10.2,17.669a3.27,3.27,0,0,0,2.833,1.637h20.4a3.272,3.272,0,0,0,2.834-1.636l8.965-15.529a1.677,1.677,0,0,0-1.452-2.516H343.082a2.5,2.5,0,0,0-2.165,1.25" transform="translate(23.198 -310.044)" fill="#bed000"/>
  <rect id="Rectangle_10" data-name="Rectangle 10" width="14.537" height="56.391" transform="translate(0 12.625)" fill="#525254"/>
  <path id="Tracé_14" data-name="Tracé 14" d="M34.186,357.378c0,5.51,3.514,8.626,7.906,8.626,4.955,0,8.148-3.993,8.148-8.626,0-5.27-2.955-8.705-8.148-8.705-4.391,0-7.906,3.194-7.906,8.705m16.853-19.727H64.856v39.455H51.279l-.64-4.233c-3.355,3.832-8.625,5.192-13.018,4.951-11.58-.718-18.05-8.945-18.05-20.446,0-11.661,7.666-20.605,19.167-20.605,5.591,0,9.5,1.916,11.581,5.111Z" transform="translate(1.431 -308.089)" fill="#525254"/>
  <path id="Tracé_15" data-name="Tracé 15" d="M99.868,358.887c0,4.153,2.955,8.227,7.907,8.227,4.392,0,7.907-3.115,7.907-8.626s-3.514-8.705-7.907-8.705c-5.193,0-7.907,4.312-7.907,9.1m.319-16.773c2.157-2.636,5.91-4.232,10.943-4.232,11.5,0,19.167,8.546,19.167,20.606,0,12.459-6.469,19.725-18.049,20.446-4.393.239-9.666-1.12-13.019-4.951l-.639,4.23H85.49V321.9h14.7Z" transform="translate(6.252 -309.177)" fill="#525254"/>
  <path id="Tracé_16" data-name="Tracé 16" d="M162,357.28c0-4.552-2.955-8.626-8.148-8.626s-8.145,4.073-8.145,8.626,2.954,8.545,8.145,8.545c4.951,0,8.148-3.754,8.148-8.545m14.376,0c0,14.375-11.421,20.606-22.524,20.606-11.34,0-22.522-6.231-22.522-20.606,0-14.617,11.1-20.686,22.522-20.686,11.662,0,22.524,6.31,22.524,20.686" transform="translate(9.604 -308.102)" fill="#525254"/>
  <path id="Tracé_17" data-name="Tracé 17" d="M193.579,337.611v21.8c0,4.873,2.8,6.549,5.511,6.549,3.515,0,6.79-2.157,6.79-7.348V337.611h14.534v39.456H207.4l-.638-4.313a16.015,16.015,0,0,1-12.459,5.271c-8.307-.081-15.416-4.473-15.416-18.531V337.611Z" transform="translate(13.081 -308.028)" fill="#525254"/>
  <path id="Tracé_18" data-name="Tracé 18" d="M239.256,321.857v16.932h8.865v11.262h-8.944v12.937c.079,2.8,1.676,3.835,3.914,3.835a8.336,8.336,0,0,0,4.313-1.359l3.195,10.862a22.643,22.643,0,0,1-11.342,2.637c-7.827,0-14.854-3.6-14.615-15.976V323.454Z" transform="translate(16.427 -309.18)" fill="#525254"/>
  <rect id="Rectangle_11" data-name="Rectangle 11" width="14.776" height="39.473" transform="translate(272.052 29.994)" fill="#525254"/>
  <path id="Tracé_19" data-name="Tracé 19" d="M290.093,321.857v28.916l8.227-11.581h16.373v.639l-13.817,17.89,16.052,20.047v.88H300.316l-10.223-13.738v13.738H275.317v-56.79Z" transform="translate(20.133 -309.18)" fill="#525254"/>
  <path id="Tracé_20" data-name="Tracé 20" d="M261,321.636c4.074,0,8.227,2.477,8.227,7.428,0,4.872-4.153,7.347-8.227,7.347-4.153,0-8.306-2.476-8.306-7.347,0-4.952,4.153-7.428,8.306-7.428" transform="translate(18.479 -309.196)" fill="#bed000"/>
</svg>
