<?xml version="1.0" encoding="utf-8"?>
<!-- Generator: Adobe Illustrator 26.3.1, SVG Export Plug-In . SVG Version: 6.00 Build 0)  -->
<svg version="1.1" id="Calque_1" xmlns="http://www.w3.org/2000/svg" xmlns:xlink="http://www.w3.org/1999/xlink" x="0px" y="0px"
	 viewBox="0 0 535.2 139.7" style="enable-background:new 0 0 535.2 139.7;" xml:space="preserve">
<style type="text/css">
	.st0{fill:#424043;}
</style>
<g>
	<g>
		<path class="st0" d="M263.9,0h-14.7v21.1h-13.5v12.7h13.5v32.3c0,7.1,1.6,13.4,4.6,18.4c5.2,8.6,14.3,13,27,13h2V83.9h-2
			c-4,0-16.9-1.3-16.9-17.9V33.8h22V21.1h-22V0z"/>
		<polygon class="st0" points="434.6,71.1 397.1,21.2 383.9,21.2 383.9,97.1 398.2,97.1 398.2,46.1 436.3,97.1 448.9,97.1 
			448.9,21.2 434.6,21.2 		"/>
		<polygon class="st0" points="520.9,21.2 520.9,71.1 483.4,21.2 470.2,21.2 470.2,97.1 484.5,97.1 484.5,46.1 522.6,97.1 
			535.2,97.1 535.2,21.2 		"/>
		<polygon class="st0" points="50.8,71.1 13.2,21.2 0,21.2 0,97.1 14.3,97.1 14.3,46.1 52.4,97.1 65,97.1 65,21.2 50.8,21.2 		"/>
		<path class="st0" d="M118.1,18.2c-10.1,0-19.5,4.1-26.3,11.6c-6.7,7.4-10.3,17.3-10.3,28c0,11.2,4,21.4,11.1,28.7
			c7,7.1,16.5,11,26.9,11c11.8,0,21.1-3.9,29.3-12.2l1.5-1.5l-9.6-8.8l-1.4,1.3c-5.7,5.4-11.9,7.8-19.5,7.8c-12,0-21-7.8-23.1-20
			h56.8l0.2-1.8c0.1-1.8,0.1-2.9,0.1-3.9c0-11.1-3.3-21.2-9.3-28.4C138,22.3,128.9,18.2,118.1,18.2z M96.7,51.5
			c2.2-12.2,10.5-20.3,21.1-20.3c4.2,0,17.8,1.5,20.7,20.3H96.7z"/>
		<path class="st0" d="M331.6,18.2c-10.1,0-19.5,4.1-26.3,11.6c-6.7,7.4-10.3,17.3-10.3,28c0,11.2,4,21.4,11.1,28.7
			c7,7.1,16.5,11,26.9,11c11.8,0,21.1-3.9,29.3-12.2l1.5-1.5l-9.6-8.8l-1.4,1.3c-5.7,5.4-11.9,7.8-19.5,7.8c-12,0-21-7.8-23.1-20
			H367l0.2-1.8c0.1-1.8,0.1-2.9,0.1-3.9c0-11.1-3.3-21.2-9.3-28.4C351.5,22.3,342.4,18.2,331.6,18.2z M310.2,51.5
			c2.2-12.2,10.5-20.3,21.1-20.3c4.2,0,17.8,1.5,20.7,20.3H310.2z"/>
		<path class="st0" d="M198.3,49.6l-0.2,0.8l0,0L198.3,49.6c-8.5-2.3-15.9-4.2-15.9-9.4c0-5.3,5.2-9,12.7-9c8.1,0,15.1,2.8,19.7,7.9
			l1.9,2.1l8.4-10.5l-1.5-1.5c-6.9-7.1-16.5-10.9-27.8-10.9c-16.1,0-27.8,9.5-27.8,22.5c0,15.8,13.9,19.4,26.2,22.7
			c9.3,2.5,17.3,4.6,17.3,11.2c0,4.9-3.9,10.1-14.9,10.1c-7.7,0-15.1-3.1-20.4-8.5l-1.6-1.7l-9.9,9l1.6,1.8
			c7.1,7.9,17.8,12.2,30,12.2c21.8,0,29.5-12.2,29.5-23.6C226,57,210.6,52.9,198.3,49.6z"/>
	</g>
	<g>
		<path class="st0" d="M0,129.7L0,129.7c0-5.7,4.3-10.5,10.4-10.5c3.5,0,5.7,1,7.7,2.7l-2.2,2.7c-1.6-1.3-3.1-2.2-5.6-2.2
			c-3.7,0-6.5,3.3-6.5,7.1v0.1c0,4.1,2.7,7.2,6.8,7.2c1.9,0,3.6-0.6,4.9-1.5v-3.8h-5.1v-3.1h8.6v8.5c-2,1.7-4.8,3.1-8.4,3.1
			C4.1,140.1,0,135.6,0,129.7z"/>
		<path class="st0" d="M23.4,119.6h9c2.5,0,4.5,0.7,5.8,2c1.1,1.1,1.7,2.6,1.7,4.3v0.1c0,3.3-2,5.3-4.8,6.1l5.4,7.6h-4.2l-4.9-7
			h-0.1H27v7h-3.5V119.6z M32.2,129.6c2.5,0,4.1-1.3,4.1-3.4v-0.1c0-2.2-1.6-3.3-4.2-3.3H27v6.8H32.2z"/>
		<path class="st0" d="M43.3,129.7L43.3,129.7c0-5.7,4.4-10.5,10.6-10.5s10.5,4.7,10.5,10.4v0.1c0,5.7-4.4,10.4-10.6,10.4
			S43.3,135.4,43.3,129.7z M60.7,129.7L60.7,129.7c0-4-2.8-7.2-6.8-7.2s-6.8,3.2-6.8,7.1v0.1c0,3.9,2.8,7.2,6.8,7.2
			S60.7,133.6,60.7,129.7z"/>
		<path class="st0" d="M68.4,131.2v-11.6h3.5v11.4c0,3.7,1.9,5.8,5.1,5.8c3.1,0,5.1-1.9,5.1-5.6v-11.6h3.5V131c0,6-3.4,9-8.7,9
			C71.7,140.1,68.4,137,68.4,131.2z"/>
		<path class="st0" d="M90.5,119.6h7.9c4.7,0,7.7,2.7,7.7,6.7v0.1c0,4.5-3.6,6.9-8.1,6.9h-4v6.5h-3.5V119.6z M98.1,130.1
			c2.7,0,4.3-1.5,4.3-3.6v-0.1c0-2.4-1.7-3.6-4.3-3.6H94v7.2H98.1z"/>
		<path class="st0" d="M109.7,119.6h14.9v3.2h-11.4v5.2h10.1v3.2h-10.1v5.4h11.5v3.2h-15.1V119.6z"/>
		<path class="st0" d="M137.6,119.6h7.5c6.3,0,10.7,4.3,10.7,10v0.1c0,5.7-4.4,10.1-10.7,10.1h-7.5V119.6z M145.1,136.5
			c4.2,0,7-2.8,7-6.8v-0.1c0-3.9-2.8-6.8-7-6.8h-4v13.7H145.1z"/>
		<path class="st0" d="M159.9,119.6h4v0.1l-2.8,8.5h-1.8L159.9,119.6z"/>
		<path class="st0" d="M174.9,119.5h3.3l8.9,20.3h-3.7l-2-4.9h-9.5l-2.1,4.9h-3.6L174.9,119.5z M180,131.7l-3.5-8.1l-3.5,8.1H180z"
			/>
		<path class="st0" d="M188.4,129.7L188.4,129.7c0-5.7,4.3-10.5,10.4-10.5c3.5,0,5.7,1,7.7,2.7l-2.2,2.7c-1.6-1.3-3.1-2.2-5.6-2.2
			c-3.7,0-6.5,3.3-6.5,7.1v0.1c0,4.1,2.7,7.2,6.8,7.2c1.9,0,3.6-0.6,4.9-1.5v-3.8h-5.1v-3.1h8.6v8.5c-2,1.7-4.8,3.1-8.4,3.1
			C192.5,140.1,188.4,135.6,188.4,129.7z"/>
		<path class="st0" d="M211.8,119.6h14.9v3.2h-11.4v5.2h10.1v3.2h-10.1v5.4h11.5v3.2h-15.1V119.6z"/>
		<path class="st0" d="M231.1,119.6h3.3l10.8,13.9v-13.9h3.5v20.1h-3l-11.1-14.3v14.3h-3.5V119.6z"/>
		<path class="st0" d="M252.9,129.7L252.9,129.7c0-5.8,4.3-10.5,10.4-10.5c3.7,0,6,1.3,7.9,3.1l-2.3,2.6c-1.6-1.5-3.3-2.5-5.6-2.5
			c-3.9,0-6.6,3.2-6.6,7.1v0.1c0,3.9,2.8,7.2,6.6,7.2c2.5,0,4.1-1,5.8-2.6l2.3,2.3c-2.1,2.2-4.4,3.6-8.2,3.6
			C257.3,140.1,252.9,135.5,252.9,129.7z"/>
		<path class="st0" d="M275.1,119.6H290v3.2h-11.4v5.2h10.1v3.2h-10.1v5.4h11.5v3.2h-15.1V119.6z"/>
		<path class="st0" d="M293,136.8l2.1-2.5c1.9,1.7,3.9,2.6,6.4,2.6c2.2,0,3.6-1,3.6-2.5v-0.1c0-1.4-0.8-2.2-4.5-3.1
			c-4.3-1-6.7-2.3-6.7-6v-0.1c0-3.5,2.9-5.8,6.9-5.8c2.9,0,5.3,0.9,7.3,2.5l-1.9,2.7c-1.8-1.4-3.6-2.1-5.5-2.1
			c-2.1,0-3.3,1.1-3.3,2.4v0.1c0,1.6,0.9,2.2,4.8,3.2c4.3,1,6.5,2.6,6.5,5.9v0.1c0,3.8-3,6-7.2,6C298.3,140,295.4,139,293,136.8z"/>
		<path class="st0" d="M321.6,119.6h3.5v20.1h-3.5V119.6z"/>
		<path class="st0" d="M330.5,119.6h3.8l6.1,9.5l6.1-9.5h3.8v20.1h-3.5v-14.4l-6.4,9.5h-0.1l-6.3-9.4v14.4h-3.5V119.6z"/>
		<path class="st0" d="M355.4,119.6h3.8l6.1,9.5l6.1-9.5h3.8v20.1h-3.5v-14.4l-6.4,9.5h-0.1l-6.3-9.4v14.4h-3.5V119.6z"/>
		<path class="st0" d="M379.5,129.7L379.5,129.7c0-5.7,4.4-10.5,10.6-10.5c6.2,0,10.5,4.7,10.5,10.4v0.1c0,5.7-4.4,10.4-10.6,10.4
			C383.8,140.1,379.5,135.4,379.5,129.7z M396.9,129.7L396.9,129.7c0-4-2.8-7.2-6.8-7.2c-4,0-6.8,3.2-6.8,7.1v0.1
			c0,3.9,2.8,7.2,6.8,7.2C394.1,136.8,396.9,133.6,396.9,129.7z"/>
		<path class="st0" d="M404.9,119.6h9c2.3,0,4.1,0.6,5.3,1.8c0.9,0.9,1.4,2,1.4,3.3v0.1c0,2.4-1.4,3.7-2.9,4.5c2.4,0.8,4,2.2,4,4.9
			v0.1c0,3.6-3,5.5-7.4,5.5h-9.3V119.6z M413.2,128.1c2.3,0,3.8-0.9,3.8-2.7v-0.1c0-1.6-1.3-2.6-3.5-2.6h-5.1v5.3H413.2z
			 M414.2,136.6c2.4,0,3.9-0.9,3.9-2.8v-0.1c0-1.7-1.4-2.7-4.1-2.7h-5.6v5.5H414.2z"/>
		<path class="st0" d="M425.8,119.6h3.5v20.1h-3.5V119.6z"/>
		<path class="st0" d="M434.7,119.6h3.5v16.9h10.6v3.2h-14.1V119.6z"/>
		<path class="st0" d="M452.7,119.6h3.5v20.1h-3.5V119.6z"/>
		<path class="st0" d="M461.7,119.6h14.9v3.2h-11.4v5.2h10.1v3.2h-10.1v5.4h11.5v3.2h-15.1V119.6z M465,114.6l3.2-1.4l3,4.7h-2.7
			L465,114.6z"/>
		<path class="st0" d="M480.9,119.6h9c2.5,0,4.5,0.7,5.8,2c1.1,1.1,1.7,2.6,1.7,4.3v0.1c0,3.3-2,5.3-4.8,6.1l5.4,7.6h-4.2l-4.9-7
			h-0.1h-4.4v7h-3.5V119.6z M489.6,129.6c2.5,0,4.1-1.3,4.1-3.4v-0.1c0-2.2-1.6-3.3-4.2-3.3h-5.1v6.8H489.6z"/>
		<path class="st0" d="M501.7,119.6h14.9v3.2h-11.4v5.2h10.1v3.2h-10.1v5.4h11.5v3.2h-15.1V119.6z"/>
		<path class="st0" d="M519.6,136.8l2.1-2.5c1.9,1.7,3.9,2.6,6.4,2.6c2.2,0,3.6-1,3.6-2.5v-0.1c0-1.4-0.8-2.2-4.5-3.1
			c-4.3-1-6.7-2.3-6.7-6v-0.1c0-3.5,2.9-5.8,6.9-5.8c2.9,0,5.3,0.9,7.3,2.5l-1.9,2.7c-1.8-1.4-3.6-2.1-5.5-2.1
			c-2.1,0-3.3,1.1-3.3,2.4v0.1c0,1.6,0.9,2.2,4.8,3.2c4.3,1,6.5,2.6,6.5,5.9v0.1c0,3.8-3,6-7.2,6C525,140,522.1,139,519.6,136.8z"/>
	</g>
</g>
</svg>
