<svg xmlns="http://www.w3.org/2000/svg" xmlns:xlink="http://www.w3.org/1999/xlink" width="151" height="155" viewBox="0 0 151 155"><defs><clipPath id="clip-Mail1_18"><rect width="151" height="155"></rect></clipPath></defs><g id="Mail1_18" data-name="Mail1 &#x2013; 18" clip-path="url(#clip-Mail1_18)"><g id="NewH2I" transform="translate(0.001 0.01)"><path id="Trac&#xE9;_1" data-name="Trac&#xE9; 1" d="M208.022,29.748,101,136.871h15l99.54-99.54a.9.9,0,0,0,0-1.272l-6.328-6.328A.882.882,0,0,0,208.022,29.748Z" transform="translate(-95.214 17.832)" fill="#eb6608"></path><path id="Trac&#xE9;_2" data-name="Trac&#xE9; 2" d="M105.429,78.263,181.912,1.61h-15L97.845,70.679a.9.9,0,0,0,0,1.255l6.328,6.328A.9.9,0,0,0,105.429,78.263Z" transform="translate(-97.59 -1.603)" fill="#eb6608"></path><path id="Trac&#xE9;_3" data-name="Trac&#xE9; 3" d="M210.679,38.7,118.91,130.654h14.981l84.372-84.372a.9.9,0,0,0,0-1.272L211.952,38.7a.9.9,0,0,0-1.273,0Z" transform="translate(-82.738 24.049)" fill="#eb6608"></path><path id="Trac&#xE9;_4" data-name="Trac&#xE9; 4" d="M213.48,47.625l-76.67,76.788h15l69.2-69.2a.9.9,0,0,0,0-1.256l-6.328-6.328A.9.9,0,0,0,213.48,47.625Z" transform="translate(-70.269 30.29)" fill="#eb6608"></path><path id="Trac&#xE9;_5" data-name="Trac&#xE9; 5" d="M106.795,87.109l6.311,6.311a.9.9,0,0,0,1.272,0L206,1.6H191.014L106.795,85.853A.9.9,0,0,0,106.795,87.109Z" transform="translate(-91.355 -1.61)" fill="#eb6608"></path><path id="Trac&#xE9;_6" data-name="Trac&#xE9; 6" d="M115.757,102.336l6.328,6.311a.865.865,0,0,0,1.255,0L230.227,1.66h-15l-99.472,99.319a.9.9,0,0,0,0,1.357Z" transform="translate(-85.15 -1.568)" fill="#eb6608"></path></g></g></svg>