<?xml version="1.0" encoding="utf-8"?>
<!-- Generator: Adobe Illustrator 25.1.0, SVG Export Plug-In . SVG Version: 6.00 Build 0)  -->
<svg version="1.1" id="Calque_1" xmlns="http://www.w3.org/2000/svg" xmlns:xlink="http://www.w3.org/1999/xlink" x="0px" y="0px"
	 viewBox="0 0 687.4 188.1" style="enable-background:new 0 0 687.4 188.1;" xml:space="preserve">
<style type="text/css">
	.st0{fill:#33B5B3;}
	.st1{fill:#6C6A69;}
	.st2{fill:#6C6B6A;}
	.st3{fill:#31B4B2;}
</style>
<g>
	<path class="st0" d="M675.7,45.1c-0.8-1.9-1.8-3.5-3.1-4.7c-1.3-1.2-2.8-2.1-4.5-2.8c-1.6-0.7-3.5-1-5.4-1c-1.9,0-3.6,0.3-5.3,1
		c-1.5,0.5-3,1.5-4.5,2.9c-1.3,1.4-2.3,2.9-3,4.7c-0.8,1.9-1.1,4-1.1,6.2c0,2.5,0.4,4.5,1.1,6.2c0.8,1.9,1.8,3.4,3.1,4.6
		c1.3,1.2,2.8,2.1,4.5,2.8c1.5,0.7,3.3,1,5.3,1c1.7,0,3.4-0.3,5.4-1c1.5-0.5,3-1.5,4.5-2.9c1.4-1.4,2.4-2.9,3.1-4.6
		c0.8-1.9,1.1-4,1.1-6.2C676.8,49.1,676.5,47,675.7,45.1z M672.8,51.3c0,1.5-0.3,3.1-0.8,4.5c-0.6,1.6-1.2,2.6-2,3.5
		c-1.1,1.1-2.1,1.8-3.2,2.2c-1.4,0.5-2.7,0.8-4.1,0.8c-1.4,0-2.7-0.2-4.1-0.8c-1.4-0.7-2.4-1.4-3.1-2.2c-0.9-1-1.6-2.2-2-3.5
		c-0.5-1.5-0.8-3-0.8-4.5c0-1.6,0.3-3,0.8-4.5c0.5-1.3,1.2-2.5,2.1-3.4c1-1.1,2-1.8,3.1-2.2c1.4-0.5,2.7-0.8,4.1-0.8
		c1.4,0,2.7,0.2,4.1,0.8c1.4,0.7,2.4,1.3,3.2,2.2c0.9,0.9,1.5,2,2,3.4C672.6,48.3,672.8,49.7,672.8,51.3z"/>
	<path class="st0" d="M667.8,55.2c-0.4-0.6-0.8-1.3-1.1-1.8c-0.1-0.2-0.3-0.4-0.4-0.7c0.8-0.5,1.4-1,1.7-1.6
		c0.5-0.7,0.7-1.5,0.7-2.5c0-1.8-0.6-3.1-1.8-4c-1.1-0.8-2.9-1.2-5.1-1.2c-0.6,0-1.3,0-2.1,0.1c-0.8,0-1.7,0.2-2.5,0.4l-0.2,0v15
		h3.9v-5.4h1.8c0.6,0.7,1,1.4,1.4,2.2c0.2,0.4,0.4,0.8,0.6,1.2c0.3,0.6,0.7,1.2,0.9,1.8V59h4l-0.2-0.4
		C668.9,57.2,668.4,56.1,667.8,55.2z M660.8,46.7c0.2,0,0.4,0,0.6,0h0.7c0.8,0,1.4,0.2,2.1,0.5c0.5,0.2,0.8,0.7,0.8,1.4
		c0,0.8-0.2,1.2-0.8,1.5c-0.5,0.3-1.3,0.4-2.4,0.4h-1V46.7z"/>
</g>
<g>
	<path class="st0" d="M278.9,96.6c-2.8-2.5-6-4.5-9.4-6.2c-3.8-1.8-7.7-3.5-11.8-5.1c-3-1.1-5.9-2.3-8.3-3.4
		c-2.8-1.4-4.8-2.5-6.5-3.7c-1.9-1.4-3.3-2.9-4.3-4.6c-1-1.7-1.5-3.8-1.5-6.4c0-2.3,0.5-4.2,1.4-5.9c1-1.7,2.3-3.1,3.9-4.1
		c1.5-1.1,3.4-1.9,5.8-2.5c2.3-0.6,4.6-0.9,7.3-0.9c5.2,0,9.8,0.6,13.6,1.8c3.9,1.2,6.9,2.4,8.8,3.5l0.6,0.3l4.8-12.3l-0.4-0.2
		c-2.3-1.5-6-3-11-4.3c-4.9-1.3-10.2-1.9-16.4-1.9c-10.4,0-18.7,2.5-24.7,7.4c-6,4.9-9,11.8-9,20.6c0,4.3,0.7,8,2.1,10.9
		c1.4,3,3.3,5.6,5.7,7.8c2.3,2.1,5.1,4,8.5,5.7c3.4,1.7,6.8,3,10.4,4.2c2.7,0.9,5.2,2,7.7,2.9l1.1,0.4c3.1,1.3,5.4,2.6,7.4,4
		c2,1.5,3.7,3.3,5,5.4c1.2,2.1,1.8,4.5,1.8,7.5c0,9.6-6.9,14.2-21.2,14.2c-6.4,0-11.7-0.8-16.2-2.4c-4.1-1.4-7.6-2.8-9.9-4.1
		l-0.6-0.3l-4.5,12.4l0.4,0.2c1.1,0.7,2.6,1.4,4.4,2.1c1.8,0.8,4.1,1.5,6.7,2.3c2.5,0.8,5.3,1.4,8.9,1.9c3.5,0.5,7.2,0.8,10.9,0.8
		c11.6,0,20.7-2.4,27-7.1c6.5-4.8,9.7-11.7,9.7-20.4c0-4.8-0.7-8.7-2.1-12.1C283.6,101.9,281.5,99,278.9,96.6z"/>
	<rect x="302" y="67.6" class="st0" width="14.4" height="75.2"/>
	<path class="st0" d="M309.1,36.8c-2.5,0-4.7,0.8-6.5,2.5c-1.8,1.6-2.7,3.8-2.7,6.7c0,2.8,0.9,5,2.7,6.7c1.8,1.7,3.9,2.5,6.5,2.5
		s4.7-0.8,6.5-2.5c1.8-1.6,2.7-3.8,2.7-6.7c0-2.8-0.9-5-2.7-6.7C313.8,37.6,311.6,36.8,309.1,36.8z"/>
	<path class="st0" d="M397.5,86.7c-0.9-4.1-2.6-7.8-5-11c-2.3-3.1-5.5-5.4-9.5-7.2c-3.9-1.7-8.8-2.5-14.9-2.5
		c-6.9,0-12.6,0.4-17.5,1.3c-5.1,0.8-9.2,1.6-12.1,2.4H338v73.1h14.4V80.1c0.1,0,0.3,0,0.4-0.1c0.4-0.1,0.9-0.1,1.5-0.3
		c1-0.2,2.2-0.4,3.7-0.5c1.3-0.2,2.8-0.3,4.3-0.4c1.5-0.1,2.9-0.1,4.4-0.1c3.3,0,6.2,0.5,8.6,1.4c2.3,0.9,4.1,2.2,5.5,4.1
		c1.4,1.9,2.4,4.4,3,7.6c0.6,3.2,0.9,7.1,0.9,11.6v39.4H399v-42.2C399,95.7,398.5,91.1,397.5,86.7z"/>
</g>
<g>
	<rect x="422" y="67.6" class="st1" width="14.4" height="75.2"/>
	<path class="st1" d="M429.2,36.8c-2.5,0-4.7,0.8-6.5,2.5c-1.8,1.6-2.7,3.8-2.7,6.7c0,2.8,0.9,5,2.7,6.7c1.8,1.7,3.9,2.5,6.5,2.5
		c2.5,0,4.7-0.8,6.5-2.5c1.8-1.6,2.7-3.8,2.7-6.7c0-2.8-0.9-5-2.7-6.7C433.9,37.6,431.7,36.8,429.2,36.8z"/>
	<path class="st1" d="M554.9,75.8c-2.1-3.1-5-5.5-8.7-7.3c-3.6-1.7-8.4-2.6-14.2-2.6c-3,0-5.8,0.3-8.4,0.9c-2.6,0.6-4.9,1.3-7.1,2.1
		c-2.4,0.9-4.1,1.7-5.4,2.6c-0.5,0.3-0.9,0.6-1.3,0.8c-0.5,0.3-1,0.6-1.4,0.9c-2.2-2.3-4.9-4.1-8-5.4C497,66.6,493,66,488.1,66
		c-6.8,0-12.5,0.4-17.4,1.3c-5.2,0.8-9.3,1.6-12.2,2.4l-0.3,0.1l0,1v72h14.4V80.1c0.2,0,0.3-0.1,0.5-0.1c0.4-0.1,0.8-0.1,1.3-0.2
		c1.2-0.2,2.4-0.4,3.8-0.5c1.3-0.2,2.8-0.3,4.3-0.4c1.5-0.1,3-0.1,4.3-0.1c3.1,0,5.6,0.5,7.6,1.4c1.9,1,3.4,2.4,4.6,4.4
		c1.1,1.8,1.9,4.4,2.4,7.6c0.5,3,0.7,6.6,0.7,11.2v39.4h14.4v-42.2c0-3.3-0.2-6.5-0.6-9.4c-0.4-3.2-0.9-5.7-1.6-7.8
		c0.8-0.6,2.4-1.6,5.5-2.9c2.8-1.2,6.5-1.8,10.9-1.8c3.2,0,5.7,0.5,7.7,1.4c1.9,1,3.4,2.4,4.6,4.4c1.1,1.9,1.9,4.5,2.3,7.6
		c0.4,3.2,0.6,6.9,0.6,11.2v39.4h14.4v-42.2c0-4.8-0.4-9.3-1.1-13.8C558.3,82.6,556.9,78.8,554.9,75.8z"/>
	<path class="st1" d="M644.8,89.1c-1.7-4.8-4.2-9-7.3-12.5c-3.1-3.4-6.9-6.1-11.3-8c-4.3-1.9-9.1-2.8-14.2-2.8
		c-5.2,0-9.9,0.9-14.2,2.8c-4.3,1.8-8.1,4.5-11.3,8c-3.1,3.4-5.6,7.6-7.3,12.5c-1.7,4.9-2.6,10.3-2.6,16.1c0,5.8,0.9,11.3,2.6,16.2
		c1.7,4.8,4.2,9,7.3,12.5c3.1,3.4,6.9,6.1,11.3,8c4.3,1.9,9.1,2.8,14.2,2.8c5.2,0,9.9-0.9,14.2-2.8c4.3-1.8,8.1-4.5,11.3-8
		c3.2-3.7,5.6-7.7,7.3-12.5c1.7-4.9,2.6-10.4,2.6-16.2C647.5,99.1,646.6,93.8,644.8,89.1z M632.5,105.2c0,8.2-1.8,14.7-5.5,19.6
		c-3.6,4.8-8.5,7.1-14.9,7.1c-6.3,0-11.2-2.3-14.9-7.1c-3.6-4.8-5.5-11.4-5.5-19.6c0-8.4,1.8-14.8,5.5-19.6
		c3.6-4.8,8.5-7.1,14.9-7.1c6.3,0,11.2,2.3,14.9,7.1C630.7,90.5,632.5,97,632.5,105.2z"/>
</g>
<g>
	<path class="st2" d="M160.6,68.6c-0.9-1-2.1-1.6-3.5-1.6c-1.3-0.1-2.6,0.4-3.6,1.3c-1,0.9-1.6,2.1-1.6,3.5v77.5h-48.6v-19.6
		l-0.8,0.4c-3.9,1.7-6.4,2.6-7.4,2.9l-0.5,0.1v36.1l-43-13.8L37.5,151V74.5l46.1,14.7v-0.8c0-0.2,0-0.5-0.1-0.7c0-0.1,0-0.3,0-0.4
		l-0.7-7.9L37,64.8c-0.6-0.2-1.2-0.3-1.9-0.3c-1.7,0-3.3,0.7-4.5,1.9c-1.2,1.2-1.8,2.8-1.7,4.5V153c0,2.8,1.8,5.2,4.4,6.1l61.9,19.8
		c0.6,0.2,1.2,0.3,1.9,0.3c1.7,0,3.3-0.7,4.5-1.9c1.2-1.2,1.8-2.8,1.7-4.5v-13.2h53.6c2.8,0,5-2.3,5-5.1l0-82.3
		C162,70.9,161.5,69.6,160.6,68.6z"/>
	<path class="st2" d="M178.6,56.7l-19.9-11.6l-0.1,0.9c-0.4,3.3-1.3,6.1-2.5,8.7l-0.3,0.5l16.9,9.8c0.8,0.6,1.9,1,2.9,1
		c1.5,0,3-0.7,4.1-2.1C181.3,61.6,180.8,58.4,178.6,56.7z"/>
	<path class="st2" d="M111.4,29.5l0.2,0.1c0.3,0.1,0.7,0.3,1.1,0.5l0.4,0.2l0.3-0.4c2-2.5,4.2-4.7,6.4-6.5l0.7-0.5l-22.1-13
		c-1.7-1.4-4.2-1.4-5.9,0L12.2,56.7c-2.2,1.7-2.7,4.9-1,7.1c1,1.4,2.5,2.1,4.1,2.1c1,0,1.9-0.3,2.8-0.9l0.1-0.1l77.2-44.8
		L111.4,29.5z"/>
</g>
<g>
	<path class="st3" d="M46.1,105.7l26.1,8.3c0.4,0.1,0.7,0.2,1.1,0.2c1.7,0,3.2-1,3.8-2.7c0.1-0.4,0.1-0.9,0.1-1.2
		c0-1.8-1.1-3.3-2.7-3.8l-26.1-8.3c-2.1-0.6-4.2,0.5-4.9,2.6c-0.1,0.4-0.1,0.8-0.1,1.2C43.4,103.7,44.5,105.2,46.1,105.7z"/>
	<path class="st3" d="M46.2,120.3l27.8,8.6c0.4,0.1,0.7,0.2,1.1,0.2c0.7,0,1.3-0.2,1.9-0.5c0.9-0.5,1.6-1.4,1.8-2.3
		c0.1-0.4,0.1-0.8,0.1-1.2c0-1.8-1.2-3.4-2.8-3.9l-27.8-8.6c-2.1-0.6-4.2,0.6-4.8,2.7c-0.1,0.5-0.1,0.8-0.1,1.1
		C43.4,118.2,44.5,119.7,46.2,120.3z"/>
	<path class="st3" d="M62.7,131.7l-14.2-4.5c-2.1-0.6-4.2,0.6-4.8,2.6c-0.1,0.4-0.1,0.8-0.1,1.2c0,1.8,1.1,3.3,2.7,3.8l14.2,4.5
		c0.4,0.1,0.7,0.2,1.1,0.2c1.7,0,3.2-1.1,3.8-2.7c0.1-0.4,0.1-0.9,0.1-1.2C65.5,133.8,64.3,132.2,62.7,131.7z"/>
	<path class="st3" d="M158.2,17.6c-0.8-1-2.3-1.1-2.6-1.1c-1.3-0.1-30.2-2.6-44,23.4l-0.3-5.6l-0.2-0.2c-0.1-0.1-0.6-0.6-1.6-0.4
		c-2.2,0.4-4.7,4.1-7.4,11c-5.4,14.1-8.8,28.8-10.3,43.8c-0.9-1-2.1-1.7-3.4-2.2L87.5,86l0.1,0.9c0.3,3.6,0.7,13.1,0.7,13.2
		c0,0.4,0.3,38.5-15.1,48.1l-2.1,1.3l2.5-0.2c0.7-0.1,16.7-2,26.2-47.6c7.4-33,22.9-59.1,32.8-66.9c-13.8,17.4-23.7,38.3-29.6,62.3
		c-1.8,12.4-9,30.9-9.1,31.1l-0.5,1.2l1.2-0.4c0.4-0.1,37.1-11.8,40.6-40.8l0.1-0.4l-0.4-0.2c-0.9-0.5-1.9-0.7-2.9-0.8
		c6.9-5.7,14.6-14,15.6-22.7l0.1-0.6l-0.6,0c-5-0.2-11.9,3.1-12.1,3.2c-0.1,0-4.2,1.6-8.1,1.4c11.9-2.8,26.8-7.3,28-24.2
		c-0.5-11.6,0.8-20,3.6-23.1l0.1-0.1l0-0.1C158.9,19.3,158.8,18.3,158.2,17.6z"/>
</g>
</svg>
