<svg xmlns="http://www.w3.org/2000/svg" version="1.1" xmlns:xlink="http://www.w3.org/1999/xlink" xmlns:svgjs="http://svgjs.com/svgjs" width="215" height="209"><svg id="SvgjsSvg1007" data-name="Calque 1" xmlns="http://www.w3.org/2000/svg" viewBox="0 0 215 209"><defs><style>.cls-1{fill:#ff007a;}.cls-2{fill:#4d545b;}</style></defs><g id="SvgjsG1006"><g id="SvgjsG1005"><g id="SvgjsG1004"><g id="SvgjsG1003"><path id="SvgjsPath1002" class="cls-1" d="M185.59,47.11,151.32,8A20.75,20.75,0,0,0,135.72.92h0L35,1.08a20.74,20.74,0,0,0-20.52,18L1.05,118.88a20.78,20.78,0,0,0,5,16.45l58.21,66.2a20.74,20.74,0,0,0,31.15-27.38L43.41,115l9.74-72.52,73.19-.11L150.77,70.3,167,56.13a38.77,38.77,0,0,1,18.64-9"></path></g><g id="SvgjsG1001"><path id="SvgjsPath1000" class="cls-2" d="M210.37,76.07l-.65-.78a19.91,19.91,0,0,0-28.09-1.89L165.69,87.33l-25.32,22.15L128.2,95.58a19.91,19.91,0,0,0-29.95,26.24l25.28,28.85a19.9,19.9,0,0,0,28.07,1.87l56.23-49.16a19.92,19.92,0,0,0,2.54-27.31"></path></g></g></g></g></svg><style>@media (prefers-color-scheme: light) { :root { filter: none; } }
</style></svg>