<?xml version="1.0" encoding="UTF-8" standalone="no"?>
<!DOCTYPE svg PUBLIC "-//W3C//DTD SVG 1.1//EN" "http://www.w3.org/Graphics/SVG/1.1/DTD/svg11.dtd">
<svg width="100%" height="100%" viewBox="0 0 1370 332" version="1.1" xmlns="http://www.w3.org/2000/svg" xmlns:xlink="http://www.w3.org/1999/xlink" xml:space="preserve" xmlns:serif="http://www.serif.com/" style="fill-rule:evenodd;clip-rule:evenodd;stroke-linejoin:round;stroke-miterlimit:2;">
    <g transform="matrix(1,0,0,1,-286,-378)">
        <g>
            <path d="M1009.6,576.4L1014.2,576.4L1014.2,542.5L1009.6,542.5L1009.6,576.4ZM1009.5,534.7L1014.3,534.7L1014.3,529L1009.5,529L1009.5,534.7Z" style="fill:rgb(29,29,27);fill-rule:nonzero;"/>
            <path d="M1026.6,542.5L1031.1,542.5L1031.1,547.6C1031.1,549.1 1031,550.3 1031,550.3L1031.1,550.3C1032.7,545.7 1038.1,541.7 1043.4,541.7C1049.7,541.7 1052.9,544.6 1053.9,550.2L1054,550.2C1055.8,545.6 1060.7,541.7 1066.5,541.7C1074.7,541.7 1077.7,546.5 1077.7,554.9L1077.7,576.5L1073.1,576.5L1073.1,556C1073.1,550.5 1072,545.9 1065.8,545.9C1060.6,545.9 1056.4,550.5 1055.1,555.5C1054.6,557 1054.5,558.6 1054.5,560.4L1054.5,576.4L1049.9,576.4L1049.9,556C1049.9,550.9 1049.2,545.9 1042.8,545.9C1037.3,545.9 1033.1,550.7 1031.7,555.9C1031.4,557.3 1031.2,558.9 1031.2,560.4L1031.2,576.4L1026.6,576.4L1026.6,542.5Z" style="fill:rgb(29,29,27);fill-rule:nonzero;"/>
            <path d="M1088.4,542.5L1092.9,542.5L1092.9,547.6C1092.9,549.1 1092.8,550.3 1092.8,550.3L1092.9,550.3C1094.5,545.7 1099.9,541.7 1105.2,541.7C1111.5,541.7 1114.7,544.6 1115.7,550.2L1115.8,550.2C1117.6,545.6 1122.5,541.7 1128.3,541.7C1136.5,541.7 1139.5,546.5 1139.5,554.9L1139.5,576.5L1134.9,576.5L1134.9,556C1134.9,550.5 1133.8,545.9 1127.6,545.9C1122.4,545.9 1118.2,550.5 1116.9,555.5C1116.4,557 1116.3,558.6 1116.3,560.4L1116.3,576.4L1111.7,576.4L1111.7,556C1111.7,550.9 1111,545.9 1104.6,545.9C1099.1,545.9 1094.9,550.7 1093.5,555.9C1093.2,557.3 1093,558.9 1093,560.4L1093,576.4L1088.4,576.4L1088.4,542.5Z" style="fill:rgb(29,29,27);fill-rule:nonzero;"/>
            <path d="M1165.3,541.7C1175.2,541.7 1183.2,549.2 1183.2,559.3C1183.2,569.4 1175.2,577.2 1165.3,577.2C1155.4,577.2 1147.4,569.5 1147.4,559.3C1147.4,549.1 1155.4,541.7 1165.3,541.7M1165.3,573.1C1172.6,573.1 1178.5,567.2 1178.5,559.3C1178.5,551.4 1172.6,545.9 1165.3,545.9C1158,545.9 1152.1,551.6 1152.1,559.3C1152.1,567 1158,573.1 1165.3,573.1" style="fill:rgb(29,29,27);fill-rule:nonzero;"/>
            <path d="M1191.5,529L1196.1,529L1196.1,545.5C1196.1,547 1196,548.3 1196,548.3L1196.1,548.3C1196.1,548.3 1198.9,541.8 1207.6,541.8C1216.3,541.8 1222.4,549.1 1222.4,559.6C1222.4,570.1 1216,577.3 1207.1,577.3C1199,577.3 1196,570.7 1196,570.7L1195.9,570.7C1195.9,570.7 1196,571.9 1196,573.5L1196,576.5L1191.6,576.5L1191.5,529ZM1206.8,573.1C1212.8,573.1 1217.7,568 1217.7,559.4C1217.7,550.8 1213.3,545.8 1207,545.8C1201.3,545.8 1196,549.8 1196,559.5C1196,566.3 1199.5,573.1 1206.8,573.1" style="fill:rgb(29,29,27);fill-rule:nonzero;"/>
            <path d="M1231.3,576.4L1235.9,576.4L1235.9,542.5L1231.3,542.5L1231.3,576.4ZM1231.2,534.7L1236,534.7L1236,529L1231.2,529L1231.2,534.7Z" style="fill:rgb(29,29,27);fill-rule:nonzero;"/>
            <path d="M1246.7,529L1251.3,529L1251.3,567.4C1251.3,571.9 1253.3,572.5 1255.1,572.5C1255.7,572.5 1256.3,572.4 1256.3,572.4L1256.3,576.5C1256.3,576.5 1255.5,576.6 1254.6,576.6C1251.8,576.6 1246.8,575.7 1246.8,568.3L1246.7,529Z" style="fill:rgb(29,29,27);fill-rule:nonzero;"/>
            <path d="M1263.8,576.4L1268.4,576.4L1268.4,542.5L1263.8,542.5L1263.8,576.4ZM1263.7,534.7L1268.5,534.7L1268.5,529L1263.7,529L1263.7,534.7Z" style="fill:rgb(29,29,27);fill-rule:nonzero;"/>
            <path d="M1295.2,541.7C1304.6,541.7 1309.4,548.9 1309.4,557.3C1309.4,558.1 1309.3,559.7 1309.3,559.7L1283.3,559.7C1283.5,568.4 1289.4,573.1 1296.5,573.1C1302.7,573.1 1306.8,569 1306.8,569L1308.9,572.5C1308.9,572.5 1304,577.2 1296.4,577.2C1286.3,577.2 1278.7,569.9 1278.7,559.5C1278.5,548.3 1286,541.7 1295.2,541.7M1304.7,555.9C1304.4,548.8 1300.1,545.5 1295.1,545.5C1289.4,545.5 1284.5,549.1 1283.4,555.9L1304.7,555.9Z" style="fill:rgb(29,29,27);fill-rule:nonzero;"/>
            <path d="M1318.1,542.5L1322.6,542.5L1322.6,548.5C1322.6,550 1322.5,551.2 1322.5,551.2L1322.6,551.2C1324.2,546.1 1328,542.2 1333.3,542.2C1334.2,542.2 1335.1,542.4 1335.1,542.4L1335.1,546.9C1335.1,546.9 1334.3,546.8 1333.4,546.8C1328.6,546.8 1325,550.6 1323.6,555.6C1322.9,557.8 1322.7,560.1 1322.7,562.2L1322.7,576.5L1318.1,576.5L1318.1,542.5Z" style="fill:rgb(29,29,27);fill-rule:nonzero;"/>
            <path d="M1088.8,489.1C1088.4,487.4 1088.2,485.2 1088.2,482.7L1088.2,378.7L1063.4,378.7L1063.4,486.4C1063.4,515.1 1080.5,518.6 1094.2,518.6C1097,518.6 1099.7,518.3 1101,518.1C1092.6,509.6 1089.7,497.4 1088.8,489.1" style="fill:rgb(29,29,27);fill-rule:nonzero;"/>
            <path d="M1016.3,518.5C1039.8,518.5 1057.2,500.1 1057.2,471.7C1057.2,443.3 1041.8,424.9 1017.6,424.9C996.6,424.9 988.8,439.6 988.8,439.6L988.5,439.6C988.5,439.6 988.8,436.8 988.8,433.5L988.8,425.2L968.5,425.2L968.5,549.5C990.9,549.2 990.8,530.9 990.8,530.9L990.8,514C990.8,509.4 990.5,506.3 990.5,506.3L990.8,506.3C990.7,506.3 998.6,518.5 1016.3,518.5M990.2,471.4C990.2,451.4 1001.2,442.9 1012.9,442.9C1026.2,442.9 1035.4,454.1 1035.4,471.3C1035.4,488.5 1025.1,499.3 1012.7,499.3C997.8,499.2 990.2,485.4 990.2,471.4" style="fill:rgb(29,29,27);fill-rule:nonzero;"/>
            <path d="M1297.8,425C1277,425 1265.3,433.2 1262.6,449.9L1285.3,449.9C1286.5,445.6 1290.9,443.6 1298.9,443.6C1308.3,443.6 1313,446.2 1313.5,451.3C1313.5,456.2 1308.6,459.1 1298.9,460.3C1276.1,462.5 1260.4,468.3 1259.9,489.9C1259.9,508.6 1273.1,518.6 1292.5,518.4L1335.8,518.4L1335.8,450C1335.3,433.1 1322.7,425 1297.8,425M1282.2,489.2C1282.2,482.6 1286.8,478.3 1295.8,476.6C1302.4,475.2 1308.6,473.4 1313.9,471.1L1313.9,479.4C1313.9,492.2 1306.2,499.7 1293.6,499.7C1286.4,499.7 1282.7,496.3 1282.2,489.2" style="fill:rgb(29,29,27);fill-rule:nonzero;"/>
            <path d="M1253.5,498.2L1209,498.2L1258.8,444.8L1258.8,424.8L1171.6,424.8C1175.9,427.4 1180.1,431.6 1182.9,438.7C1183.7,441.4 1184.3,443.3 1184.6,444.6L1211.2,444.5L1229.4,444.5L1179.2,500L1179.2,518.6L1267,518.6C1256.2,512.7 1254,502.5 1253.5,498.2" style="fill:rgb(29,29,27);fill-rule:nonzero;"/>
            <path d="M1134.7,424.9C1113.8,424.9 1102,433.1 1099.3,449.9L1122.1,449.9C1123.3,445.6 1127.7,443.6 1135.8,443.6C1145.2,443.6 1150,446.2 1150.5,451.3C1150.5,456.3 1145.5,459.2 1135.8,460.4C1112.9,462.6 1097.1,468.4 1096.6,490.2C1096.6,509 1109.8,519 1129.4,518.8L1173,518.8L1173,450C1172.4,433.1 1159.7,424.8 1134.7,424.9M1119,489.4C1119,482.7 1123.6,478.4 1132.7,476.7C1139.4,475.3 1145.5,473.4 1150.8,471.2L1150.8,479.6C1150.8,492.4 1143.1,500 1130.4,500C1123.3,500 1119.5,496.6 1119,489.4" style="fill:rgb(29,29,27);fill-rule:nonzero;"/>
            <path d="M294.7,494.9C294.7,494.9 305,505.6 320.9,505.6C328.5,505.6 336.1,501.6 336.1,494.2C336.1,477.4 289.1,480.8 289.1,451C289.1,434.4 303.9,425 322.2,425C342.3,425 351.7,435.1 351.7,435.1L344.7,448.3C344.7,448.3 336.6,440.2 322.1,440.2C314.5,440.2 307.1,443.4 307.1,451.4C307.1,467.9 354.1,464.2 354.1,494.2C354.1,509.4 341.1,520.8 321,520.8C298.6,520.8 286.3,507.4 286.3,507.4L294.7,494.9Z" style="fill:rgb(231,0,76);fill-rule:nonzero;"/>
            <path d="M371.8,442.5L359.8,442.5L359.8,428.4L372.3,428.4L372.3,402L389.3,402L389.3,428.4L411.3,428.4L411.3,442.5L389.3,442.5L389.3,483.2C389.3,501.5 402.1,503.8 408.8,503.8C411.3,503.8 413,503.4 413,503.4L413,518.9C413,518.9 410.5,519.3 406.9,519.3C395.1,519.3 371.8,515.7 371.8,485.1L371.8,442.5Z" style="fill:rgb(231,0,76);fill-rule:nonzero;"/>
            <path d="M510.6,427.1L526.7,427.1L526.7,434.9C526.7,438.5 526.3,441.6 526.3,441.6L526.7,441.6C526.7,441.6 534.5,425 557.4,425C582,425 597.5,444.5 597.5,472.9C597.5,501.3 580,520.8 556.1,520.8C536,520.8 528.1,505.8 528.1,505.8L527.7,505.8C527.7,505.8 528.1,509.1 528.1,513.8L528.1,542.9L510.6,542.9L510.6,427.1ZM553.4,505.7C567.9,505.7 579.8,493.8 579.8,473C579.8,452.2 569.1,440.3 554,440.3C540.3,440.3 527.6,449.9 527.6,473.2C527.6,489.4 536.6,505.7 553.4,505.7" style="fill:rgb(231,0,76);fill-rule:nonzero;"/>
            <path d="M605,391L622.5,391L622.5,437.8C622.5,442.1 622.1,445.4 622.1,445.4L622.5,445.4C626.5,436.5 638,425 656.3,425C677.8,425 687.7,436.8 687.7,460.1L687.7,518.6L670.2,518.6L670.2,464C670.2,451.2 667.5,441 652.9,441C639.2,441 627.8,450.4 624,463.6C622.9,467.2 622.5,471.4 622.5,475.7L622.5,518.5L605,518.5L605,391Z" style="fill:rgb(231,0,76);fill-rule:nonzero;"/>
            <path d="M749.5,461.4L753.5,461.4L753.5,459.8C753.5,444.8 745,439.7 733.4,439.7C719.3,439.7 707.9,448.6 707.9,448.6L700.7,435.8C700.7,435.8 713.9,425 734.9,425C758,425 771,437.6 771,460.8L771,518.6L754.7,518.6L754.7,509.9C754.7,505.7 755.1,502.7 755.1,502.7L754.7,502.7C754.7,502.7 747.3,520.8 725.4,520.8C709.7,520.8 694.3,511.2 694.3,493C694.4,462.7 734.2,461.4 749.5,461.4M729.3,506.6C744.1,506.6 753.7,491.1 753.7,477.5L753.7,474.6L749.2,474.6C736,474.6 712.2,475.5 712.2,492C712.1,499.4 717.9,506.6 729.3,506.6" style="fill:rgb(231,0,76);fill-rule:nonzero;"/>
            <path d="M781,427.1L798,427.1L798,439.2C798,442.8 797.6,445.9 797.6,445.9L798,445.9C801.6,437.9 812.5,424.9 832.3,424.9C853.8,424.9 863.7,436.7 863.7,460L863.7,518.6L846.2,518.6L846.2,464C846.2,451.2 843.5,441 828.9,441C814.3,441 803.8,450.2 800,463.4C798.9,467 798.5,471.2 798.5,475.7L798.5,518.5L781,518.5L781,427.1Z" style="fill:rgb(231,0,76);fill-rule:nonzero;"/>
            <path d="M917.5,424.9C943.3,424.9 957.1,444.1 957.1,467.7C957.1,470.1 956.6,475.3 956.6,475.3L889.9,475.3C890.8,495.4 905.1,505.5 921.4,505.5C937.7,505.5 948.5,494.8 948.5,494.8L955.7,507.6C955.7,507.6 942.2,520.6 920.3,520.6C891.6,520.6 871.9,499.8 871.9,472.7C871.8,443.7 891.5,424.9 917.5,424.9M939.2,462.2C938.7,446.5 928.9,438.9 917.2,438.9C903.8,438.9 893,447.2 890.4,462.2L939.2,462.2Z" style="fill:rgb(231,0,76);fill-rule:nonzero;"/>
            <path d="M462.7,424.9C488.6,424.9 502.3,444.1 502.3,467.7C502.3,470.1 501.8,475.3 501.8,475.3L435.1,475.3C436,495.4 450.3,505.5 466.6,505.5C482.9,505.5 493.7,494.8 493.7,494.8L500.9,507.6C500.9,507.6 487.4,520.6 465.5,520.6C436.8,520.6 417.1,499.8 417.1,472.7C417,443.7 436.7,424.9 462.7,424.9M484.4,462.2C483.9,446.5 474.1,438.9 462.4,438.9C449,438.9 438.2,447.2 435.6,462.2L484.4,462.2Z" style="fill:rgb(231,0,76);fill-rule:nonzero;"/>
            <rect x="440.1" y="402" width="39.2" height="9.6" style="fill:rgb(231,0,76);"/>
            <path d="M660,709.5L1303.6,709.5C1334,709.5 1358.6,684.9 1358.6,654.5C1358.6,624.1 1334,599.5 1303.6,599.5L660,599.5C629.6,599.5 605,624.1 605,654.5C605,684.9 629.6,709.5 660,709.5" style="fill:rgb(229,0,77);fill-rule:nonzero;"/>
            <path d="M658,634.5C667.7,634.5 672.8,640.1 672.8,640.1L668.3,647.4C668.3,647.4 663.9,643.4 658.5,643.4C651,643.4 647.4,649 647.4,654.6C647.4,660.2 651.2,666.4 658.5,666.4C664.5,666.4 669,661.6 669,661.6L674,668.6C674,668.6 668.4,675.2 658.1,675.2C645.8,675.2 637.4,666.4 637.4,654.8C637.4,643.2 646.2,634.6 658,634.5Z" style="fill:white;fill-rule:nonzero;"/>
            <path d="M678,634.4L686.4,634.4L681.5,648.4L675,648.4L678,634.4Z" style="fill:white;fill-rule:nonzero;"/>
            <path d="M689.6,635.2L714.3,635.2L714.3,643.5L699.3,643.5L699.3,650.7L711.3,650.7L711.3,659L699.3,659L699.3,666.4L715.1,666.4L715.1,674.7L689.7,674.7L689.6,635.2Z" style="fill:white;fill-rule:nonzero;"/>
            <path d="M722.1,662.3C722.1,662.3 726.6,666.4 731.5,666.4C733.5,666.4 735.6,665.6 735.6,663.3C735.6,658.6 717.9,658.8 717.9,646.7C717.9,639.4 724,634.6 731.8,634.6C740.3,634.6 744.5,639.1 744.5,639.1L740.4,647C740.4,647 736.4,643.5 731.7,643.5C729.7,643.5 727.5,644.4 727.5,646.6C727.5,651.6 745.2,650.7 745.2,663.1C745.2,669.6 740.2,675.3 731.3,675.3C722.4,675.3 716.9,669.7 716.9,669.7L722.1,662.3Z" style="fill:white;fill-rule:nonzero;"/>
            <path d="M757.5,643.5L745.5,643.5L745.5,635.2L779,635.2L779,643.5L767,643.5L767,674.6L757.4,674.6L757.5,643.5Z" style="fill:white;fill-rule:nonzero;"/>
            <path d="M792.5,635.2L802.1,635.2L802.1,666.3L818.2,666.3L818.2,674.6L792.5,674.6L792.5,635.2Z" style="fill:white;fill-rule:nonzero;"/>
            <path d="M821.5,635.2L846.2,635.2L846.2,643.5L831.2,643.5L831.2,650.7L843.2,650.7L843.2,659L831.2,659L831.2,666.4L847,666.4L847,674.7L821.6,674.7L821.5,635.2Z" style="fill:white;fill-rule:nonzero;"/>
            <path d="M880.5,634.5C890.2,634.5 895.3,640.1 895.3,640.1L890.8,647.4C890.8,647.4 886.4,643.4 881,643.4C873.5,643.4 869.9,649 869.9,654.6C869.9,660.2 873.7,666.4 881,666.4C887,666.4 891.5,661.6 891.5,661.6L896.5,668.6C896.5,668.6 890.9,675.2 880.6,675.2C868.3,675.2 859.9,666.4 859.9,654.8C859.9,643.2 868.6,634.6 880.5,634.5Z" style="fill:white;fill-rule:nonzero;"/>
            <path d="M917.8,634.5C929.7,634.5 938.4,643.3 938.4,654.6C938.4,665.9 929.7,675.2 917.8,675.2C905.9,675.2 897.2,666.2 897.2,654.6C897.2,643 905.9,634.5 917.8,634.5ZM917.8,666.4C923.7,666.4 928.4,661.3 928.4,654.6C928.4,647.9 923.7,643.3 917.8,643.3C911.9,643.3 907.2,648.1 907.2,654.6C907.2,661.1 911.9,666.4 917.8,666.4Z" style="fill:white;fill-rule:nonzero;"/>
            <path d="M942.9,635.2L967.6,635.2L967.6,643.5L952.6,643.5L952.6,650.7L964.6,650.7L964.6,659L952.6,659L952.6,666.4L968.4,666.4L968.4,674.7L943,674.7L942.9,635.2Z" style="fill:white;fill-rule:nonzero;"/>
            <path d="M972.8,635.2L982.4,635.2L982.4,660.1C982.4,664.2 985.1,666.4 989.2,666.4C993.3,666.4 996,664.2 996,660.1L996,635.2L1005.6,635.2L1005.6,660.1C1005.6,669 999.1,675.2 989.2,675.2C979.3,675.2 972.7,668.9 972.7,660.1L972.8,635.2Z" style="fill:white;fill-rule:nonzero;"/>
            <path d="M1012.4,635.2L1026.1,635.2C1030.1,635.2 1032,635.5 1033.8,636.1C1038.3,637.8 1041.1,641.8 1041.1,647.6C1041.1,651.8 1039.1,656.4 1035.2,658.3L1035.2,658.4C1035.2,658.4 1035.8,659.1 1036.7,660.8L1044.4,674.6L1033.7,674.6L1026.7,661.3L1022.2,661.3L1022.2,674.6L1012.6,674.6L1012.4,635.2ZM1026.2,653C1029.3,653 1031.2,651.3 1031.2,648.2C1031.2,645.2 1030.1,643.5 1025.3,643.5L1022.1,643.5L1022.1,653.1L1026.2,653Z" style="fill:white;fill-rule:nonzero;"/>
            <path d="M1076.6,634.5C1088.5,634.5 1097.2,643.3 1097.2,654.6C1097.2,659.1 1095.6,663 1093.3,666.3L1097.4,669.7L1092,675.8L1088,672C1084.8,674.1 1080.9,675.2 1076.7,675.2C1064.8,675.2 1056.1,666.2 1056.1,654.6C1056.1,643 1064.7,634.5 1076.6,634.5ZM1076.6,666.4C1078,666.4 1079.7,666.1 1080.9,665.5L1076.9,662L1082.3,655.9L1086.2,659.7C1086.9,658.2 1087.3,656.5 1087.3,654.6C1087.3,648.2 1082.6,643.3 1076.7,643.3C1070.8,643.3 1066.1,648.1 1066.1,654.6C1066.1,661.1 1070.7,666.4 1076.6,666.4Z" style="fill:white;fill-rule:nonzero;"/>
            <path d="M1101.8,635.2L1111.4,635.2L1111.4,660.1C1111.4,664.2 1114.1,666.4 1118.2,666.4C1122.3,666.4 1125,664.2 1125,660.1L1125,635.2L1134.6,635.2L1134.6,660.1C1134.6,669 1128.1,675.2 1118.2,675.2C1108.3,675.2 1101.7,668.9 1101.7,660.1L1101.8,635.2Z" style="fill:white;fill-rule:nonzero;"/>
            <rect x="1141.4" y="635.2" width="9.6" height="39.4" style="fill:white;fill-rule:nonzero;"/>
            <path d="M1168.9,635.2L1185.2,635.2C1192.9,635.2 1198,640.8 1198,648.7C1198,656.6 1192.8,662.4 1185.2,662.4L1178.5,662.4L1178.5,674.6L1168.9,674.6L1168.9,635.2ZM1183.3,654.1C1186.7,654.1 1188.3,651.8 1188.3,648.7C1188.3,645.6 1186.6,643.4 1183.5,643.4L1178.6,643.4L1178.6,654.1L1183.3,654.1Z" style="fill:white;fill-rule:nonzero;"/>
            <path d="M1220.7,666.3L1208.4,666.3L1206,674.6L1196.1,674.6L1209.5,635.2L1219.6,635.2L1233,674.6L1223.1,674.6L1220.7,666.3ZM1214.5,644.2C1214.5,644.2 1213.6,648.5 1212.9,651L1210.6,658.7L1218.4,658.7L1216.2,651C1215.5,648.5 1214.6,644.2 1214.6,644.2L1214.5,644.2Z" style="fill:white;fill-rule:nonzero;"/>
            <path d="M1235.4,635.2L1249.1,635.2C1253.1,635.2 1255,635.5 1256.8,636.1C1261.3,637.8 1264.1,641.8 1264.1,647.6C1264.1,651.8 1262.1,656.4 1258.2,658.3L1258.2,658.4C1258.2,658.4 1258.8,659.1 1259.7,660.8L1267.4,674.6L1256.7,674.6L1249.7,661.3L1245.2,661.3L1245.2,674.6L1235.6,674.6L1235.4,635.2ZM1249.2,653C1252.3,653 1254.2,651.3 1254.2,648.2C1254.2,645.2 1253.1,643.5 1248.3,643.5L1245.1,643.5L1245.1,653.1L1249.2,653Z" style="fill:white;fill-rule:nonzero;"/>
            <path d="M1271,635.2L1280.6,635.2L1280.6,666.3L1296.7,666.3L1296.7,674.6L1271,674.6L1271,635.2Z" style="fill:white;fill-rule:nonzero;"/>
            <path d="M1300,635.2L1324.7,635.2L1324.7,643.5L1309.7,643.5L1309.7,650.7L1321.7,650.7L1321.7,659L1309.7,659L1309.7,666.4L1325.5,666.4L1325.5,674.7L1300,674.7L1300,635.2Z" style="fill:white;fill-rule:nonzero;"/>
            <path d="M1389.6,407.5L1524.7,407.5C1588.7,407.5 1626.9,439 1626.9,491.7L1626.9,492.5C1626.9,546.7 1587.2,579.1 1520.7,579.1L1476.2,579.1L1432.1,623.7L1418.8,637.7L1418.8,538.9L1483.6,486.6L1555.1,532.9C1561.5,537.6 1570.5,536.2 1575.2,529.8C1579.9,523.4 1578.5,514.4 1572.1,509.7L1483.9,451.2L1390.2,524.1L1390.2,709.5L1452.8,643.8L1488.3,607.8L1520.8,607.8C1559.4,607.8 1592.4,597.8 1616.2,579C1642.1,558.5 1655.8,528.5 1655.8,492.5L1655.8,491.7C1655.8,457.1 1643,428.2 1618.9,408.1C1595.9,388.9 1563.3,378.8 1524.8,378.8L1389.7,378.8L1389.6,407.5Z" style="fill:rgb(229,0,77);fill-rule:nonzero;"/>
        </g>
    </g>
</svg>
