<svg width="141px" height="36px" viewBox="0 0 141 36" version="1.1" xmlns="http://www.w3.org/2000/svg">
    <!-- Generator: sketchtool 57.1 (101010) - https://sketch.com -->
    <title>81C9DEB0-2748-4652-9B96-B50B6FECBD0B</title>
    <desc>Created with sketchtool.</desc>
    <g stroke="none" stroke-width="1" fill="none" fill-rule="evenodd">
        <g transform="translate(-80.000000, -10846.000000)" fill="#FFFFFE">
            <g transform="translate(0.000000, 10650.000000)">
                <g transform="translate(0.000000, 24.000000)">
                    <g transform="translate(80.000000, 172.000000)">
                        <path d="M102.278289,31.7763243 C102.278289,31.3702703 102.167408,31.0699459 101.944324,30.8737297 C101.721901,30.6752432 101.350866,30.576 100.832542,30.576 C100.683599,30.576 100.551535,30.5854054 100.432711,30.6064865 C100.313556,30.6246486 100.212937,30.6486486 100.131514,30.6778378 L100.131514,32.9614054 C100.176197,32.9721081 100.249345,32.9824865 100.348641,32.9892973 C100.448268,32.9987027 100.551535,33.0019459 100.654472,33.0019459 C101.203577,33.0019459 101.610359,32.8962162 101.878127,32.6821622 C102.14457,32.4681081 102.278289,32.1651892 102.278289,31.7763243 Z M72.1506268,29.9691892 C72.662993,29.9691892 73.1012183,30.0476757 73.4646408,30.2052973 C73.8287254,30.3606486 74.1252887,30.5747027 74.3556549,30.8425946 C74.5853592,31.1117838 74.754493,31.4267027 74.8633873,31.787027 C74.9696338,32.1492973 75.0235845,32.5326486 75.0235845,32.9412973 C75.0235845,33.3554595 74.9696338,33.744973 74.8633873,34.1056216 C74.754493,34.4652973 74.5853592,34.7808649 74.3556549,35.0487568 C74.1252887,35.3185946 73.8287254,35.5294054 73.4646408,35.6834595 C73.1012183,35.8365405 72.662993,35.9140541 72.1506268,35.9140541 C71.6389225,35.9140541 71.1993732,35.8365405 70.8316479,35.6834595 C70.4645845,35.5294054 70.1657042,35.3185946 69.935338,35.0487568 C69.7049718,34.7808649 69.537162,34.4652973 69.4282676,34.1056216 C69.3213592,33.744973 69.2680704,33.3554595 69.2680704,32.9412973 C69.2680704,32.5326486 69.3213592,32.1492973 69.4282676,31.787027 C69.537162,31.4267027 69.7049718,31.1117838 69.935338,30.8425946 C70.1657042,30.5747027 70.4645845,30.3606486 70.8316479,30.2052973 C71.1993732,30.0476757 71.6389225,29.9691892 72.1506268,29.9691892 Z M78.5548732,29.9691892 C79.0179225,29.9691892 79.4227183,30.0071351 79.7692606,30.083027 C80.1167958,30.1592432 80.4060775,30.2643243 80.6374366,30.3972973 C80.8691268,30.5335135 81.0422324,30.6904865 81.1587394,30.8737297 C81.2739225,31.0540541 81.332507,31.2525405 81.332507,31.4646486 C81.332507,31.6598919 81.2878239,31.8353514 81.1977958,31.9851892 C81.1084296,32.1366486 80.9942394,32.2660541 80.8578732,32.3756757 C80.7205141,32.484 80.5675986,32.5705946 80.4004507,32.6351351 C80.2329718,32.7 80.0674789,32.7460541 79.9036408,32.7726486 L79.9036408,32.7911351 C80.0817113,32.8196757 80.2703732,32.8728649 80.4669789,32.9500541 C80.6649085,33.0285405 80.8469507,33.1294054 81.0147606,33.2516757 C81.1819085,33.3768649 81.3169507,33.5215135 81.4228662,33.6898378 C81.5271268,33.8584865 81.5800845,34.0452973 81.5800845,34.2512432 C81.5800845,34.5382703 81.5089225,34.7850811 81.3679225,34.9955676 C81.2255986,35.2050811 81.0260141,35.3772973 80.7695,35.5148108 C80.511331,35.6523243 80.2035141,35.7538378 79.8410845,35.8170811 C79.4796479,35.8816216 79.0801479,35.9140541 78.6402676,35.9140541 C78.1474296,35.9140541 77.7101972,35.8861622 77.3262535,35.8297297 C76.9433028,35.7745946 76.6202606,35.6915676 76.3591127,35.5864865 L76.3591127,30.2964324 C76.5984155,30.2020541 76.9065634,30.1235676 77.2835563,30.0635676 C77.6602183,30.0012973 78.0842113,29.9691892 78.5548732,29.9691892 Z M100.826585,29.9691892 C101.786113,29.9691892 102.498725,30.1281081 102.962768,30.4423784 C103.428465,30.756973 103.660817,31.1867027 103.660817,31.7312432 C103.660817,31.9504865 103.609514,32.1525405 103.509225,32.3338378 C103.408606,32.5174054 103.268599,32.6734054 103.090528,32.807027 C102.911465,32.9374054 102.695331,33.0437838 102.442789,33.1222703 C102.188923,33.2010811 101.910232,33.2490811 101.604732,33.2643243 L101.604732,33.2824865 L103.895155,35.8323243 L102.319662,35.8323243 L100.153028,33.2153514 L100.131514,33.2153514 L100.131514,35.8323243 L98.7287958,35.8323243 L98.7287958,30.2977297 C98.9667746,30.2020541 99.264331,30.1235676 99.6214648,30.0635676 C99.9782676,30.0012973 100.380085,29.9691892 100.826585,29.9691892 Z M50.3290563,30.0509189 L50.3290563,35.8323243 L48.9051549,35.8323243 L48.9051549,30.0509189 L50.3290563,30.0509189 Z M87.3693592,30.0509189 L87.3693592,35.1246486 L89.4903169,35.1246486 L89.4903169,35.8323243 L85.9454577,35.8323243 L85.9454577,30.0509189 L87.3693592,30.0509189 Z M92.0806127,30.0509189 L92.0806127,35.8323243 L90.6560493,35.8323243 L90.6560493,30.0509189 L92.0806127,30.0509189 Z M97.4194155,30.0509189 L97.4194155,30.7582703 L95.0978803,30.7582703 L95.0978803,32.5174054 L97.1619085,32.5174054 L97.1619085,33.2250811 L95.0978803,33.2250811 L95.0978803,35.1246486 L97.4194155,35.1246486 L97.4194155,35.8323243 L93.6739789,35.8323243 L93.6739789,30.0509189 L97.4194155,30.0509189 Z M62.7598944,30.0509189 L64.132493,33.7521081 C64.1996831,33.9356757 64.2662113,34.1503784 64.3334014,34.3975135 L64.3562394,34.3975135 C64.4151549,34.1503784 64.4823451,33.9356757 64.5564859,33.7521081 L65.9744296,30.0509189 L67.4039577,30.0509189 L68.2631972,35.8323243 L66.9227042,35.8323243 C66.9227042,35.8112432 66.9104577,35.7006486 66.8846408,35.5008649 C66.8591549,35.3033514 66.8263873,35.0627027 66.7893169,34.7808649 C66.7519155,34.4987027 66.7131901,34.1941622 66.6724789,33.8711351 C66.6314366,33.5448649 66.5927113,33.2458378 66.5556408,32.9721081 C66.5182394,32.6974054 66.4765352,32.3798919 66.4321831,32.015027 C66.4093451,31.8363243 66.3994155,31.6761081 66.3994155,31.5376216 L66.3994155,31.3183784 L66.3765775,31.3183784 C66.3021056,31.5995676 66.2286268,31.8308108 66.153162,32.015027 C66.153162,32.0221622 66.128338,32.0892973 66.081338,32.2170811 C66.0316901,32.3464865 65.965162,32.52 65.8797676,32.7421622 C65.7937113,32.9627027 65.7026901,33.2010811 65.6063732,33.4579459 C65.5097254,33.7164324 65.4091056,33.9788108 65.3045141,34.2473514 C65.1999225,34.5152432 65.1059225,34.7643243 65.0198662,34.9897297 C64.9348028,35.2157838 64.8619859,35.4064865 64.8030704,35.5618378 C64.742831,35.7145946 64.7067535,35.8044324 64.6902042,35.8323243 L63.8875634,35.8323243 C63.872007,35.8044324 63.8273239,35.6915676 63.7528521,35.4927568 C63.6783803,35.2945946 63.5880211,35.052973 63.4801197,34.7682162 C63.4077441,34.5772973 63.3327207,34.3787387 63.2542647,34.1728288 L63.1339085,33.8584865 C63.0104507,33.5354595 62.8975845,33.239027 62.792993,32.964 C62.6897254,32.6902703 62.5699085,32.3698378 62.4368521,32.0082162 C62.369,31.8282162 62.2945282,31.5995676 62.2124437,31.3183784 L62.1909296,31.3183784 L62.1909296,31.5291892 C62.1909296,31.6692973 62.1796761,31.8282162 62.156507,32.0082162 C62.1121549,32.3698378 62.0721056,32.6902703 62.0340423,32.964 C61.9966408,33.239027 61.9585775,33.5354595 61.9172042,33.8584865 C61.875831,34.1782703 61.8371056,34.4818378 61.7997042,34.7682162 C61.7626338,35.052973 61.7311901,35.2945946 61.7053732,35.4927568 C61.6779014,35.6915676 61.664993,35.8044324 61.664993,35.8323243 L60.4717887,35.8323243 L61.3313592,30.0509189 L62.7598944,30.0509189 Z M84.3100563,30.0509189 L84.3100563,35.8323243 L82.8868169,35.8323243 L82.8868169,30.0509189 L84.3100563,30.0509189 Z M53.9411056,30.0509189 L55.3127113,33.7521081 C55.3795704,33.9356757 55.4474225,34.1503784 55.5146127,34.3975135 L55.5367887,34.3975135 C55.5960352,34.1503784 55.6635563,33.9356757 55.7373662,33.7521081 L57.1556408,30.0509189 L58.584507,30.0509189 L59.4434155,35.8323243 L58.1039155,35.8323243 C58.1039155,35.8112432 58.0906761,35.7006486 58.0648592,35.5008649 C58.0393732,35.3033514 58.0069366,35.0627027 57.9698662,34.7808649 C57.9327958,34.4987027 57.8940704,34.1941622 57.8523662,33.8711351 C57.8123169,33.5448649 57.7725986,33.2458378 57.7361901,32.9721081 C57.6991197,32.6974054 57.6574155,32.3798919 57.6130634,32.015027 C57.5902254,31.8363243 57.5796338,31.6761081 57.5796338,31.5376216 L57.5796338,31.3183784 L57.5571268,31.3183784 C57.4826549,31.5995676 57.4081831,31.8308108 57.3337113,32.015027 C57.3337113,32.0221622 57.3092183,32.0892973 57.2618873,32.2170811 C57.2129014,32.3464865 57.1460423,32.52 57.0599859,32.7421622 C56.9749225,32.9627027 56.8835704,33.2010811 56.7865915,33.4579459 C56.6902746,33.7164324 56.5899859,33.9788108 56.4853944,34.2473514 C56.3808028,34.5152432 56.2861408,34.7643243 56.2014085,34.9897297 C56.1153521,35.2157838 56.0425352,35.4064865 55.9839507,35.5618378 C55.9237113,35.7145946 55.8866408,35.8044324 55.8717465,35.8323243 L55.0677817,35.8323243 C55.0525563,35.8044324 55.0082042,35.6915676 54.9340634,35.4927568 C54.8592606,35.2945946 54.7682394,35.052973 54.660338,34.7682162 C54.5517746,34.4818378 54.4372535,34.1782703 54.3141268,33.8584865 C54.191,33.5354595 54.0778028,33.239027 53.9738732,32.964 C53.8699437,32.6902703 53.7511197,32.3698378 53.6174014,32.0082162 C53.5505423,31.8282162 53.4754085,31.5995676 53.3936549,31.3183784 L53.3708169,31.3183784 L53.3708169,31.5291892 C53.3708169,31.6692973 53.3598944,31.8282162 53.3373873,32.0082162 C53.2930352,32.3698378 53.2526549,32.6902703 53.2152535,32.964 C53.1778521,33.239027 53.1387958,33.5354595 53.0977535,33.8584865 C53.0560493,34.1782703 53.0173239,34.4818378 52.9802535,34.7682162 C52.9428521,35.052973 52.9117394,35.2945946 52.8855915,35.4927568 C52.8587817,35.6915676 52.8458732,35.8044324 52.8458732,35.8323243 L51.652007,35.8323243 L52.5119085,30.0509189 L53.9411056,30.0509189 Z M134.533197,12.1848649 C136.249028,12.1848649 137.796387,12.8474595 138.899894,13.9433514 C140.003401,15.0389189 140.695824,16.5415135 140.695824,18.2224865 C140.695824,21.6606486 137.838754,24.4031351 134.427282,24.4031351 C133.804035,24.4031351 132.622746,24.1375135 132.12031,24.1375135 C129.508885,24.1375135 127.377804,26.15593 127.264518,28.6883481 L127.259782,28.9005405 L127.259782,34.0015135 C127.259782,34.9313838 126.530619,35.6923646 125.602676,35.766138 L125.454585,35.772 L118.432056,35.772 C117.48403,35.772 116.707765,35.0575127 116.632508,34.1468561 L116.626528,34.0015135 L116.626528,27.1193514 C116.626528,26.1894811 117.355392,25.4285003 118.283872,25.3547269 L118.432056,25.3488649 L123.636148,25.3504865 C126.320444,25.3504865 128.496676,23.2164324 128.496676,20.5864865 C128.496676,20.0935135 128.225599,18.9356757 128.225599,18.3269189 C128.225599,14.9834595 131.023754,12.1848649 134.533197,12.1848649 Z M78.1358451,33.0622703 L77.7002676,33.0723243 L77.7002676,35.1583784 C77.8270352,35.1982703 77.9597606,35.2248649 78.0971197,35.2414054 C78.2334859,35.2595676 78.3999718,35.2667027 78.5935986,35.2667027 C78.8239648,35.2667027 79.0341408,35.2482162 79.2241268,35.2122162 C79.4141127,35.1752432 79.5772887,35.1165405 79.7149789,35.0348108 C79.852669,34.9537297 79.9609014,34.8454054 80.0383521,34.7147027 C80.1167958,34.5810811 80.1561831,34.4228108 80.1561831,34.2372973 C80.1561831,33.8331892 80.0016127,33.5309189 79.6918099,33.3389189 C79.383993,33.144 78.865007,33.0525405 78.1358451,33.0622703 Z M72.1506268,30.6765405 C71.8557183,30.6765405 71.6157535,30.7443243 71.4313944,30.8763243 C71.2467042,31.0067027 71.1007394,31.1782703 70.994493,31.3874595 C70.8869225,31.5963243 70.8141056,31.8363243 70.7724014,32.1032432 C70.7323521,32.3730811 70.712162,32.6429189 70.712162,32.9108108 C70.712162,33.1787027 70.7293732,33.4452973 70.7677676,33.7109189 C70.8031831,33.9775135 70.8740141,34.2149189 70.9772817,34.4254054 C71.0805493,34.6342703 71.2265141,34.8048649 71.4145141,34.932 C71.6025141,35.0614054 71.8484366,35.1246486 72.1506268,35.1246486 C72.4534789,35.1246486 72.6980775,35.0614054 72.8824366,34.932 C73.0664648,34.8048649 73.2107746,34.6342703 73.3143732,34.4254054 C73.4173099,34.2149189 73.4874789,33.9775135 73.5245493,33.7109189 C73.5606268,33.4452973 73.579493,33.1787027 73.579493,32.9108108 C73.579493,32.6429189 73.5593028,32.3730811 73.5192535,32.1032432 C73.4775493,31.8363243 73.4057254,31.5963243 73.3027887,31.3874595 C73.1998521,31.1782703 73.0548803,31.0067027 72.8701901,30.8763243 C72.685831,30.7443243 72.4461972,30.6765405 72.1506268,30.6765405 Z M78.5548732,30.576 C78.3824296,30.576 78.2291831,30.5854054 78.0928169,30.6012973 C77.9597606,30.6191351 77.8276972,30.6444324 77.7002676,30.6765405 L77.7002676,32.5498378 L78.1388239,32.5566486 C78.4827183,32.5637838 78.772,32.5472432 79.0040211,32.5073514 C79.2363732,32.4681081 79.4227183,32.4051892 79.5660352,32.3185946 C79.7073662,32.2323243 79.8109648,32.1227027 79.8751761,31.991027 C79.9383944,31.8606486 79.969838,31.7072432 79.969838,31.5330811 C79.969838,30.8957838 79.4985141,30.576 78.5548732,30.576 Z M19.9779789,12.4349189 L23.4208944,15.5247568 L11.8780915,25.6887568 L0.325359155,15.5211892 L3.77853521,12.4375135 C3.77853521,12.4375135 10.8354859,19.0952432 11.8780915,20.0448649 C12.9203662,19.0952432 19.9779789,12.4349189 19.9779789,12.4349189 Z M73.1144577,12.4407568 C79.4901551,12.4407568 83.5781556,13.4093032 83.7360181,13.4472854 L83.7407606,13.4484324 L83.7407606,17.2621622 C83.7407606,17.2621622 79.1215211,16.3858378 73.1144577,16.3647568 C70.2279296,16.3647568 68.2205,16.7017297 67.0249789,16.8184865 C67.0282887,17.7392432 67.021007,20.3153514 67.0249789,21.228 C68.0930704,21.3334054 70.0746831,21.6765405 73.0710986,21.6765405 C79.1187305,21.6765405 83.5636066,20.8448438 83.7355904,20.8122282 L83.7407606,20.8112432 L83.7407606,24.5961081 C83.7407606,24.5961081 79.5531268,25.5989189 73.1144577,25.5989189 C66.7572567,25.5989189 62.650849,24.6325546 62.4922575,24.594658 L62.487493,24.5935135 L62.487493,13.4503784 C62.487493,13.4503784 66.5635845,12.4407568 73.1144577,12.4407568 Z M93.4386479,12.6509189 L93.4386479,25.3488649 L88.783331,25.3488649 L88.783331,12.6509189 L93.4386479,12.6509189 Z M31.1811901,12.6509189 L31.1811901,25.3488649 L26.5268662,25.3488649 L26.5268662,12.6509189 L31.1811901,12.6509189 Z M57.3522465,12.6509189 L57.3522465,25.3488649 L52.8306479,25.3488649 C52.8306479,25.3488649 49.467169,22.6845405 44.5199225,20.1716757 C43.1403732,19.4714595 41.9749718,19.0060541 40.8929789,18.5747027 L40.8943028,25.3488649 L36.3899155,25.3488649 L36.3899155,12.6736216 C36.3899155,12.6736216 40.2002254,13.3984865 44.5278662,15.5970811 C49.4754437,18.1083243 52.8342887,20.5459459 52.8342887,20.5459459 L52.8342887,12.6509189 L57.3522465,12.6509189 Z M125.454585,0.261081081 C126.451845,0.261081081 127.259782,1.05308108 127.259782,2.03156757 L127.259782,8.91502703 C127.259782,9.89221622 126.451845,10.6842162 125.454585,10.6842162 L125.101785,10.6841098 C123.905486,10.683749 120.076808,10.6825946 120.070106,10.6825946 C118.399289,10.6825946 116.962148,11.9305946 116.389873,12.4673514 C115.814289,13.0050811 114.613141,14.4580541 114.607845,16.7747027 L114.607845,23.1197838 L103.935535,23.1197838 L103.935535,12.6580541 L110.40962,12.6580541 C112.7765,12.6541622 114.258324,11.4765405 114.806106,10.9118919 C115.354549,10.3517838 116.628183,8.94454054 116.628183,7.30735135 L116.627396,4.79364003 C116.626969,3.43449504 116.626528,2.03124324 116.626528,2.03124324 C116.626528,1.05308108 117.434796,0.261081081 118.432056,0.261081081 L125.454585,0.261081081 Z"></path>
                    </g>
                </g>
            </g>
        </g>
    </g>
</svg>
